<svg width="242" height="378" viewBox="0 0 242 378" fill="none" xmlns="http://www.w3.org/2000/svg">
<rect x="122.352" y="206.027" width="29.7973" height="171.973" fill="#0ADB81"/>
<rect x="-5.34961" y="117.486" width="189.851" height="75.7703" fill="#F5F5F5"/>
<rect x="-49.6211" y="239.23" width="146.432" height="70.6622" fill="#F5F5F5"/>
<rect x="169.32" y="129.983" width="20.5107" height="88.9172" transform="rotate(-39.265 169.32 129.983)" fill="#F5F5F5"/>
<rect width="20.5107" height="56.5714" transform="matrix(-0.774227 -0.632908 -0.632908 0.774227 210.645 244.551)" fill="#F5F5F5"/>
<path d="M210.041 178.715V230.035L162.271 288.608H-71.9941L-114.324 236.706V128.555H169.131L210.041 178.715Z" fill="#F5F5F5"/>
<rect x="1.45898" y="193.256" width="17.027" height="17.027" fill="#00FF08"/>
<rect x="61.9062" y="239.23" width="17.027" height="17.027" fill="#0022FF"/>
<rect x="67.0137" y="154.945" width="17.027" height="17.027" fill="#E1FF00"/>
<rect x="113.839" y="197.514" width="17.027" height="17.027" fill="#FF0000"/>
<rect x="150.446" y="235.824" width="17.027" height="17.027" fill="#00FF08"/>
<rect x="152.15" y="155.799" width="17.027" height="17.027" fill="#0022FF"/>
</svg>
