<svg width="253" height="378" viewBox="0 0 253 378" fill="none" xmlns="http://www.w3.org/2000/svg">
<rect width="29.7973" height="171.973" transform="matrix(-1 0 0 1 119.125 206.027)" fill="#0ADB81"/>
<rect width="189.851" height="75.7703" transform="matrix(-1 0 0 1 246.826 117.486)" fill="#F5F5F5"/>
<rect width="146.432" height="70.6622" transform="matrix(-1 0 0 1 291.098 239.23)" fill="#F5F5F5"/>
<rect width="20.5107" height="88.9172" transform="matrix(-0.774227 -0.632908 -0.632908 0.774227 72.1564 129.983)" fill="#F5F5F5"/>
<rect x="30.8322" y="244.551" width="20.5107" height="56.5714" transform="rotate(-39.265 30.8322 244.551)" fill="#F5F5F5"/>
<path d="M31.4357 178.715V230.035L79.2062 288.608H313.471L355.801 236.706V128.555H72.3458L31.4357 178.715Z" fill="#F5F5F5"/>
<rect width="17.027" height="17.027" transform="matrix(-1 0 0 1 240.018 193.256)" fill="#00FF08"/>
<rect width="17.027" height="17.027" transform="matrix(-1 0 0 1 179.57 239.23)" fill="#0022FF"/>
<rect width="17.027" height="17.027" transform="matrix(-1 0 0 1 174.463 154.945)" fill="#E1FF00"/>
<rect width="17.027" height="17.027" transform="matrix(-1 0 0 1 127.638 197.514)" fill="#FF0000"/>
<rect width="17.027" height="17.027" transform="matrix(-1 0 0 1 91.0304 235.824)" fill="#00FF08"/>
<rect width="17.027" height="17.027" transform="matrix(-1 0 0 1 89.3263 155.799)" fill="#0022FF"/>
</svg>
