<svg width="1184" height="320" viewBox="0 0 1184 320" fill="none" xmlns="http://www.w3.org/2000/svg">
<rect x="1083.03" y="174.414" width="25.2251" height="145.585" fill="#0ADB81"/>
<rect x="924.475" y="174.414" width="25.2251" height="145.585" fill="#0ADB81"/>
<rect x="847.519" y="79.2246" width="56.216" height="93.2985" transform="rotate(-12.1946 847.519 79.2246)" fill="#0ADB81"/>
<rect x="797.628" y="47.0977" width="54.0847" height="54.0847" fill="#F5F5F5"/>
<path d="M919.429 90.1699L858.708 123.12L858.732 123.062L808.703 130.938L788.98 96.5801L891.25 41.082L919.429 90.1699Z" fill="#0ADB81"/>
<rect x="974.925" y="99.459" width="160.72" height="64.1439" fill="#F5F5F5"/>
<rect x="833.662" y="23.7832" width="33.153" height="54.0539" fill="#F5F5F5"/>
<rect x="865.499" y="8.92188" width="54.0847" height="54.0847" fill="#F5F5F5"/>
<rect x="856.726" width="36.0565" height="36.0565" fill="#F5F5F5"/>
<rect x="910.039" y="18.4668" width="36.0565" height="36.0565" fill="#F5F5F5"/>
<rect x="917.267" y="38.9199" width="36.0565" height="36.0565" fill="#F5F5F5"/>
<rect x="901.412" y="55.4941" width="44.6845" height="36.0359" fill="#F5F5F5"/>
<rect x="895.645" y="74.9551" width="36.0565" height="36.0565" fill="#F5F5F5"/>
<rect x="874.025" y="82.8848" width="27.3873" height="36.0359" fill="#F5F5F5"/>
<rect x="937.447" y="202.523" width="123.964" height="59.8196" fill="#F5F5F5"/>
<rect x="1122.79" y="110.039" width="17.3635" height="75.2735" transform="rotate(-39.265 1122.79 110.039)" fill="#F5F5F5"/>
<rect width="17.3635" height="47.891" transform="matrix(-0.774227 -0.632908 -0.632908 0.774227 1157.78 207.027)" fill="#F5F5F5"/>
<rect width="17.3635" height="68.7759" transform="matrix(-0.774227 -0.632908 -0.632908 0.774227 909.375 124.143)" fill="#F5F5F5"/>
<rect width="22.476" height="68.7759" transform="matrix(-0.0110786 -0.999939 -0.999939 0.0110786 932.207 122.322)" fill="#0ADB81"/>
<rect width="12.4173" height="18.9446" transform="matrix(-0.0110786 -0.999939 -0.999939 0.0110786 889.501 79.4453)" fill="#0ADB81"/>
<rect width="12.7082" height="18.9446" transform="matrix(0.999939 -0.0110786 -0.0110786 -0.999939 900.18 69.5312)" fill="#0ADB81"/>
<rect width="12.4173" height="18.9446" transform="matrix(0.999939 -0.0110786 -0.0110786 -0.999939 883.604 55.8398)" fill="#0ADB81"/>
<rect width="24.499" height="26.3947" transform="matrix(-0.0110786 -0.999939 -0.999939 0.0110786 912.942 64.8906)" fill="#0ADB81"/>
<rect width="24.499" height="26.3947" transform="matrix(-0.0110786 -0.999939 -0.999939 0.0110786 893.481 69.1816)" fill="#0ADB81"/>
<rect x="874.025" y="59.0977" width="15.8558" height="33.8737" fill="#F5F5F5"/>
<rect x="801.129" y="95.8555" width="5.04503" height="6.48646" transform="rotate(60.83 801.129 95.8555)" fill="#F5F5F5"/>
<rect x="843.528" y="76.5664" width="2.74736" height="26.5202" transform="rotate(60.83 843.528 76.5664)" fill="#F5F5F5"/>
<rect x="844.889" y="84.7485" width="7.10923" height="20.926" transform="rotate(60.83 844.889 84.7485)" stroke="#F5F5F5" stroke-width="5.04503"/>
<path d="M1157.27 151.294V194.737L1116.82 244.325H918.508L882.672 200.386V108.83H1122.63L1157.27 151.294Z" fill="#F5F5F5"/>
<path d="M951.862 232.791H865.375V171.231L887.433 122.521H951.862V232.791Z" fill="#F5F5F5"/>
<rect x="923.032" y="131.893" width="14.4144" height="14.4144" fill="#0022FF"/>
<rect x="951.862" y="209.729" width="14.4144" height="14.4144" fill="#FF0000"/>
<rect x="980.69" y="163.604" width="14.4144" height="14.4144" fill="#00FF08"/>
<rect x="898.529" y="174.414" width="14.4144" height="14.4144" fill="#E1FF00"/>
<rect x="1031.86" y="202.523" width="14.4144" height="14.4144" fill="#0022FF"/>
<rect x="1036.18" y="131.17" width="14.4144" height="14.4144" fill="#E1FF00"/>
<rect x="1075.83" y="167.207" width="14.4144" height="14.4144" fill="#FF0000"/>
<rect x="1106.82" y="199.639" width="14.4144" height="14.4144" fill="#00FF08"/>
<rect x="1108.26" y="131.893" width="14.4144" height="14.4144" fill="#0022FF"/>
<rect x="259.99" y="189.943" width="25.2251" height="145.585" transform="rotate(-29.3532 259.99 189.943)" fill="#0ADB81"/>
<rect x="135.496" y="174.414" width="25.2251" height="145.585" fill="#0ADB81"/>
<rect x="58.5403" y="79.2246" width="56.216" height="93.2985" transform="rotate(-12.1946 58.5403 79.2246)" fill="#0ADB81"/>
<rect x="8.64966" y="47.0977" width="54.0847" height="54.0847" fill="#F5F5F5"/>
<path d="M130.45 90.1699L69.7297 123.12L69.7532 123.062L19.7239 130.938L0.000244141 96.5801L102.271 41.082L130.45 90.1699Z" fill="#0ADB81"/>
<rect x="185.947" y="99.459" width="160.72" height="64.1439" fill="#F5F5F5"/>
<rect x="44.6838" y="23.7832" width="33.153" height="54.0539" fill="#F5F5F5"/>
<rect x="76.5208" y="8.92188" width="54.0847" height="54.0847" fill="#F5F5F5"/>
<rect x="67.7473" width="36.0565" height="36.0565" fill="#F5F5F5"/>
<rect x="121.061" y="18.4668" width="36.0565" height="36.0565" fill="#F5F5F5"/>
<rect x="128.288" y="38.9199" width="36.0565" height="36.0565" fill="#F5F5F5"/>
<rect x="112.434" y="55.4941" width="44.6845" height="36.0359" fill="#F5F5F5"/>
<rect x="106.666" y="74.9551" width="36.0565" height="36.0565" fill="#F5F5F5"/>
<rect x="85.0461" y="82.8848" width="27.3873" height="36.0359" fill="#F5F5F5"/>
<rect x="148.468" y="202.523" width="123.964" height="59.8196" fill="#F5F5F5"/>
<rect x="333.815" y="110.039" width="17.3635" height="75.2735" transform="rotate(-39.265 333.815 110.039)" fill="#F5F5F5"/>
<rect width="17.3635" height="47.891" transform="matrix(-0.774227 -0.632908 -0.632908 0.774227 368.798 207.027)" fill="#F5F5F5"/>
<rect width="17.3635" height="68.7759" transform="matrix(-0.774227 -0.632908 -0.632908 0.774227 120.397 124.143)" fill="#F5F5F5"/>
<rect width="22.476" height="68.7759" transform="matrix(-0.0110786 -0.999939 -0.999939 0.0110786 143.229 122.322)" fill="#0ADB81"/>
<rect width="12.4173" height="18.9446" transform="matrix(-0.0110786 -0.999939 -0.999939 0.0110786 100.523 79.4453)" fill="#0ADB81"/>
<rect width="12.7082" height="18.9446" transform="matrix(0.999939 -0.0110786 -0.0110786 -0.999939 111.201 69.5312)" fill="#0ADB81"/>
<rect width="12.4173" height="18.9446" transform="matrix(0.999939 -0.0110786 -0.0110786 -0.999939 94.6252 55.8398)" fill="#0ADB81"/>
<rect width="24.499" height="26.3947" transform="matrix(-0.0110786 -0.999939 -0.999939 0.0110786 123.963 64.8906)" fill="#0ADB81"/>
<rect width="24.499" height="26.3947" transform="matrix(-0.0110786 -0.999939 -0.999939 0.0110786 104.502 69.1816)" fill="#0ADB81"/>
<rect x="85.0461" y="59.0977" width="15.8558" height="33.8737" fill="#F5F5F5"/>
<rect x="12.1506" y="95.8555" width="5.04503" height="6.48646" transform="rotate(60.83 12.1506 95.8555)" fill="#F5F5F5"/>
<rect x="54.5491" y="76.5664" width="2.74736" height="26.5202" transform="rotate(60.83 54.5491 76.5664)" fill="#F5F5F5"/>
<rect x="55.9109" y="84.7485" width="7.10923" height="20.926" transform="rotate(60.83 55.9109 84.7485)" stroke="#F5F5F5" stroke-width="5.04503"/>
<path d="M368.287 151.294V194.737L327.845 244.325H129.529L93.6936 200.386V108.83H333.654L368.287 151.294Z" fill="#F5F5F5"/>
<path d="M162.883 232.791H76.3967V171.231L98.4543 122.521H162.883V232.791Z" fill="#F5F5F5"/>
<rect x="134.054" y="131.893" width="14.4144" height="14.4144" fill="#0022FF"/>
<rect x="162.883" y="209.729" width="14.4144" height="14.4144" fill="#FF0000"/>
<rect x="191.711" y="163.604" width="14.4144" height="14.4144" fill="#00FF08"/>
<rect x="109.55" y="174.414" width="14.4144" height="14.4144" fill="#E1FF00"/>
<rect x="242.883" y="202.523" width="14.4144" height="14.4144" fill="#0022FF"/>
<rect x="247.206" y="131.17" width="14.4144" height="14.4144" fill="#E1FF00"/>
<rect x="286.847" y="167.207" width="14.4144" height="14.4144" fill="#FF0000"/>
<rect x="317.837" y="199.639" width="14.4144" height="14.4144" fill="#00FF08"/>
<rect x="319.28" y="131.893" width="14.4144" height="14.4144" fill="#0022FF"/>
<rect x="688.506" y="174.414" width="25.2251" height="145.585" fill="#0ADB81"/>
<rect x="580.807" y="184" width="25.2251" height="145.585" transform="rotate(41.007 580.807 184)" fill="#0ADB81"/>
<rect x="452.993" y="79.2246" width="56.216" height="93.2985" transform="rotate(-12.1946 452.993 79.2246)" fill="#0ADB81"/>
<rect x="403.103" y="47.0977" width="54.0847" height="54.0847" fill="#F5F5F5"/>
<path d="M524.903 90.1699L464.182 123.12L464.205 123.062L414.177 130.938L394.453 96.5801L496.724 41.082L524.903 90.1699Z" fill="#0ADB81"/>
<rect x="580.4" y="99.459" width="160.72" height="64.1439" fill="#F5F5F5"/>
<rect x="439.137" y="23.7832" width="33.153" height="54.0539" fill="#F5F5F5"/>
<rect x="470.974" y="8.92188" width="54.0847" height="54.0847" fill="#F5F5F5"/>
<rect x="462.2" width="36.0565" height="36.0565" fill="#F5F5F5"/>
<rect x="515.514" y="18.4668" width="36.0565" height="36.0565" fill="#F5F5F5"/>
<rect x="522.741" y="38.9199" width="36.0565" height="36.0565" fill="#F5F5F5"/>
<rect x="506.887" y="55.4941" width="44.6845" height="36.0359" fill="#F5F5F5"/>
<rect x="501.119" y="74.9551" width="36.0565" height="36.0565" fill="#F5F5F5"/>
<rect x="479.499" y="82.8848" width="27.3873" height="36.0359" fill="#F5F5F5"/>
<rect x="542.921" y="202.523" width="123.964" height="59.8196" fill="#F5F5F5"/>
<rect x="728.268" y="110.039" width="17.3635" height="75.2735" transform="rotate(-39.265 728.268 110.039)" fill="#F5F5F5"/>
<rect width="17.3635" height="47.891" transform="matrix(-0.774227 -0.632908 -0.632908 0.774227 763.251 207.027)" fill="#F5F5F5"/>
<rect width="17.3635" height="68.7759" transform="matrix(-0.774227 -0.632908 -0.632908 0.774227 514.85 124.143)" fill="#F5F5F5"/>
<rect width="22.476" height="68.7759" transform="matrix(-0.0110786 -0.999939 -0.999939 0.0110786 537.682 122.322)" fill="#0ADB81"/>
<rect width="12.4173" height="18.9446" transform="matrix(-0.0110786 -0.999939 -0.999939 0.0110786 494.976 79.4453)" fill="#0ADB81"/>
<rect width="12.7082" height="18.9446" transform="matrix(0.999939 -0.0110786 -0.0110786 -0.999939 505.655 69.5312)" fill="#0ADB81"/>
<rect width="12.4173" height="18.9446" transform="matrix(0.999939 -0.0110786 -0.0110786 -0.999939 489.078 55.8398)" fill="#0ADB81"/>
<rect width="24.499" height="26.3947" transform="matrix(-0.0110786 -0.999939 -0.999939 0.0110786 518.416 64.8906)" fill="#0ADB81"/>
<rect width="24.499" height="26.3947" transform="matrix(-0.0110786 -0.999939 -0.999939 0.0110786 498.955 69.1816)" fill="#0ADB81"/>
<rect x="479.499" y="59.0977" width="15.8558" height="33.8737" fill="#F5F5F5"/>
<rect x="406.604" y="95.8555" width="5.04503" height="6.48646" transform="rotate(60.83 406.604 95.8555)" fill="#F5F5F5"/>
<rect x="449.002" y="76.5664" width="2.74736" height="26.5202" transform="rotate(60.83 449.002 76.5664)" fill="#F5F5F5"/>
<rect x="450.364" y="84.7485" width="7.10923" height="20.926" transform="rotate(60.83 450.364 84.7485)" stroke="#F5F5F5" stroke-width="5.04503"/>
<path d="M762.74 151.294V194.737L722.299 244.325H523.983L488.147 200.385V108.83H728.108L762.74 151.294Z" fill="#F5F5F5"/>
<path d="M557.336 232.791H470.85V171.231L492.907 122.521H557.336V232.791Z" fill="#F5F5F5"/>
<rect x="528.507" y="131.893" width="14.4144" height="14.4144" fill="#0022FF"/>
<rect x="557.336" y="209.729" width="14.4144" height="14.4144" fill="#FF0000"/>
<rect x="586.164" y="163.604" width="14.4144" height="14.4144" fill="#00FF08"/>
<rect x="504.003" y="174.414" width="14.4144" height="14.4144" fill="#E1FF00"/>
<rect x="637.336" y="202.523" width="14.4144" height="14.4144" fill="#0022FF"/>
<rect x="641.659" y="131.17" width="14.4144" height="14.4144" fill="#E1FF00"/>
<rect x="681.3" y="167.207" width="14.4144" height="14.4144" fill="#FF0000"/>
<rect x="712.29" y="199.639" width="14.4144" height="14.4144" fill="#00FF08"/>
<rect x="713.733" y="131.893" width="14.4144" height="14.4144" fill="#0022FF"/>
</svg>
