<svg width="1184" height="320" viewBox="0 0 1184 320" fill="none" xmlns="http://www.w3.org/2000/svg">
<rect width="25.2251" height="145.585" transform="matrix(-1 0 0 1 100.847 174.414)" fill="#0ADB81"/>
<rect width="25.2251" height="145.585" transform="matrix(-1 0 0 1 259.403 174.414)" fill="#0ADB81"/>
<rect width="56.216" height="93.2985" transform="matrix(-0.977436 -0.211232 -0.211232 0.977436 336.359 79.2246)" fill="#0ADB81"/>
<rect width="54.0847" height="54.0847" transform="matrix(-1 0 0 1 386.25 47.0977)" fill="#F5F5F5"/>
<path d="M264.449 90.1699L325.17 123.12L325.146 123.062L375.175 130.938L394.898 96.5801L292.628 41.082L264.449 90.1699Z" fill="#0ADB81"/>
<rect width="160.72" height="64.1439" transform="matrix(-1 0 0 1 208.953 99.459)" fill="#F5F5F5"/>
<rect width="33.153" height="54.0539" transform="matrix(-1 0 0 1 350.216 23.7832)" fill="#F5F5F5"/>
<rect width="54.0847" height="54.0847" transform="matrix(-1 0 0 1 318.379 8.92188)" fill="#F5F5F5"/>
<rect width="36.0565" height="36.0565" transform="matrix(-1 0 0 1 327.152 0)" fill="#F5F5F5"/>
<rect width="36.0565" height="36.0565" transform="matrix(-1 0 0 1 273.839 18.4668)" fill="#F5F5F5"/>
<rect width="36.0565" height="36.0565" transform="matrix(-1 0 0 1 266.611 38.9199)" fill="#F5F5F5"/>
<rect width="44.6845" height="36.0359" transform="matrix(-1 0 0 1 282.466 55.4941)" fill="#F5F5F5"/>
<rect width="36.0565" height="36.0565" transform="matrix(-1 0 0 1 288.233 74.9551)" fill="#F5F5F5"/>
<rect width="27.3873" height="36.0359" transform="matrix(-1 0 0 1 309.854 82.8848)" fill="#F5F5F5"/>
<rect width="123.964" height="59.8196" transform="matrix(-1 0 0 1 246.432 202.523)" fill="#F5F5F5"/>
<rect width="17.3635" height="75.2735" transform="matrix(-0.774227 -0.632908 -0.632908 0.774227 61.085 110.039)" fill="#F5F5F5"/>
<rect x="26.1016" y="207.027" width="17.3635" height="47.891" transform="rotate(-39.265 26.1016 207.027)" fill="#F5F5F5"/>
<rect x="274.503" y="124.143" width="17.3635" height="68.7759" transform="rotate(-39.265 274.503 124.143)" fill="#F5F5F5"/>
<rect x="251.671" y="122.322" width="22.476" height="68.7759" transform="rotate(-89.3652 251.671 122.322)" fill="#0ADB81"/>
<rect x="294.377" y="79.4453" width="12.4173" height="18.9446" transform="rotate(-89.3652 294.377 79.4453)" fill="#0ADB81"/>
<rect x="283.698" y="69.5312" width="12.7082" height="18.9446" transform="rotate(-179.365 283.698 69.5312)" fill="#0ADB81"/>
<rect x="300.274" y="55.8398" width="12.4173" height="18.9446" transform="rotate(-179.365 300.274 55.8398)" fill="#0ADB81"/>
<rect x="270.937" y="64.8906" width="24.499" height="26.3947" transform="rotate(-89.3652 270.937 64.8906)" fill="#0ADB81"/>
<rect x="290.397" y="69.1816" width="24.499" height="26.3947" transform="rotate(-89.3652 290.397 69.1816)" fill="#0ADB81"/>
<rect width="15.8558" height="33.8737" transform="matrix(-1 0 0 1 309.854 59.0977)" fill="#F5F5F5"/>
<rect width="5.04503" height="6.48646" transform="matrix(-0.487403 0.873177 0.873177 0.487403 382.749 95.8555)" fill="#F5F5F5"/>
<rect width="2.74736" height="26.5202" transform="matrix(-0.487403 0.873177 0.873177 0.487403 340.351 76.5664)" fill="#F5F5F5"/>
<rect x="0.973122" y="3.43208" width="7.10923" height="20.926" transform="matrix(-0.487403 0.873177 0.873177 0.487403 336.466 82.226)" stroke="#F5F5F5" stroke-width="5.04503"/>
<path d="M26.6123 151.294V194.737L67.0547 244.325H265.37L301.206 200.386V108.83H61.2451L26.6123 151.294Z" fill="#F5F5F5"/>
<path d="M232.017 232.791H318.503V171.231L296.445 122.521H232.017V232.791Z" fill="#F5F5F5"/>
<rect width="14.4144" height="14.4144" transform="matrix(-1 0 0 1 260.846 131.893)" fill="#0022FF"/>
<rect width="14.4144" height="14.4144" transform="matrix(-1 0 0 1 232.017 209.729)" fill="#FF0000"/>
<rect width="14.4144" height="14.4144" transform="matrix(-1 0 0 1 203.188 163.604)" fill="#00FF08"/>
<rect width="14.4144" height="14.4144" transform="matrix(-1 0 0 1 285.35 174.414)" fill="#E1FF00"/>
<rect width="14.4144" height="14.4144" transform="matrix(-1 0 0 1 152.017 202.523)" fill="#0022FF"/>
<rect width="14.4144" height="14.4144" transform="matrix(-1 0 0 1 147.693 131.17)" fill="#E1FF00"/>
<rect width="14.4144" height="14.4144" transform="matrix(-1 0 0 1 108.053 167.207)" fill="#FF0000"/>
<rect width="14.4144" height="14.4144" transform="matrix(-1 0 0 1 77.0625 199.639)" fill="#00FF08"/>
<rect width="14.4144" height="14.4144" transform="matrix(-1 0 0 1 75.6201 131.893)" fill="#0022FF"/>
<rect width="25.2251" height="145.585" transform="matrix(-0.871615 -0.490191 -0.490191 0.871615 923.888 189.943)" fill="#0ADB81"/>
<rect width="25.2251" height="145.585" transform="matrix(-1 0 0 1 1048.38 174.414)" fill="#0ADB81"/>
<rect width="56.216" height="93.2985" transform="matrix(-0.977436 -0.211232 -0.211232 0.977436 1125.34 79.2246)" fill="#0ADB81"/>
<rect width="54.0847" height="54.0847" transform="matrix(-1 0 0 1 1175.23 47.0977)" fill="#F5F5F5"/>
<path d="M1053.43 90.1699L1114.15 123.12L1114.12 123.062L1164.15 130.938L1183.88 96.5801L1081.61 41.082L1053.43 90.1699Z" fill="#0ADB81"/>
<rect width="160.72" height="64.1439" transform="matrix(-1 0 0 1 997.932 99.459)" fill="#F5F5F5"/>
<rect width="33.153" height="54.0539" transform="matrix(-1 0 0 1 1139.19 23.7832)" fill="#F5F5F5"/>
<rect width="54.0847" height="54.0847" transform="matrix(-1 0 0 1 1107.36 8.92188)" fill="#F5F5F5"/>
<rect width="36.0565" height="36.0565" transform="matrix(-1 0 0 1 1116.13 0)" fill="#F5F5F5"/>
<rect width="36.0565" height="36.0565" transform="matrix(-1 0 0 1 1062.82 18.4668)" fill="#F5F5F5"/>
<rect width="36.0565" height="36.0565" transform="matrix(-1 0 0 1 1055.59 38.9199)" fill="#F5F5F5"/>
<rect width="44.6845" height="36.0359" transform="matrix(-1 0 0 1 1071.44 55.4941)" fill="#F5F5F5"/>
<rect width="36.0565" height="36.0565" transform="matrix(-1 0 0 1 1077.21 74.9551)" fill="#F5F5F5"/>
<rect width="27.3873" height="36.0359" transform="matrix(-1 0 0 1 1098.83 82.8848)" fill="#F5F5F5"/>
<rect width="123.964" height="59.8196" transform="matrix(-1 0 0 1 1035.41 202.523)" fill="#F5F5F5"/>
<rect width="17.3635" height="75.2735" transform="matrix(-0.774227 -0.632908 -0.632908 0.774227 850.063 110.039)" fill="#F5F5F5"/>
<rect x="815.08" y="207.027" width="17.3635" height="47.891" transform="rotate(-39.265 815.08 207.027)" fill="#F5F5F5"/>
<rect x="1063.48" y="124.143" width="17.3635" height="68.7759" transform="rotate(-39.265 1063.48 124.143)" fill="#F5F5F5"/>
<rect x="1040.65" y="122.322" width="22.476" height="68.7759" transform="rotate(-89.3652 1040.65 122.322)" fill="#0ADB81"/>
<rect x="1083.36" y="79.4453" width="12.4173" height="18.9446" transform="rotate(-89.3652 1083.36 79.4453)" fill="#0ADB81"/>
<rect x="1072.68" y="69.5312" width="12.7082" height="18.9446" transform="rotate(-179.365 1072.68 69.5312)" fill="#0ADB81"/>
<rect x="1089.25" y="55.8398" width="12.4173" height="18.9446" transform="rotate(-179.365 1089.25 55.8398)" fill="#0ADB81"/>
<rect x="1059.92" y="64.8906" width="24.499" height="26.3947" transform="rotate(-89.3652 1059.92 64.8906)" fill="#0ADB81"/>
<rect x="1079.38" y="69.1816" width="24.499" height="26.3947" transform="rotate(-89.3652 1079.38 69.1816)" fill="#0ADB81"/>
<rect width="15.8558" height="33.8737" transform="matrix(-1 0 0 1 1098.83 59.0977)" fill="#F5F5F5"/>
<rect width="5.04503" height="6.48646" transform="matrix(-0.487403 0.873177 0.873177 0.487403 1171.73 95.8555)" fill="#F5F5F5"/>
<rect width="2.74736" height="26.5202" transform="matrix(-0.487403 0.873177 0.873177 0.487403 1129.33 76.5664)" fill="#F5F5F5"/>
<rect x="0.973122" y="3.43208" width="7.10923" height="20.926" transform="matrix(-0.487403 0.873177 0.873177 0.487403 1125.44 82.226)" stroke="#F5F5F5" stroke-width="5.04503"/>
<path d="M815.591 151.294V194.737L856.033 244.325H1054.35L1090.18 200.386V108.83H850.225L815.591 151.294Z" fill="#F5F5F5"/>
<path d="M1021 232.791H1107.48V171.231L1085.42 122.521H1021V232.791Z" fill="#F5F5F5"/>
<rect width="14.4144" height="14.4144" transform="matrix(-1 0 0 1 1049.82 131.893)" fill="#0022FF"/>
<rect width="14.4144" height="14.4144" transform="matrix(-1 0 0 1 1021 209.729)" fill="#FF0000"/>
<rect width="14.4144" height="14.4144" transform="matrix(-1 0 0 1 992.167 163.604)" fill="#00FF08"/>
<rect width="14.4144" height="14.4144" transform="matrix(-1 0 0 1 1074.33 174.414)" fill="#E1FF00"/>
<rect width="14.4144" height="14.4144" transform="matrix(-1 0 0 1 940.995 202.523)" fill="#0022FF"/>
<rect width="14.4144" height="14.4144" transform="matrix(-1 0 0 1 936.672 131.17)" fill="#E1FF00"/>
<rect width="14.4144" height="14.4144" transform="matrix(-1 0 0 1 897.031 167.207)" fill="#FF0000"/>
<rect width="14.4144" height="14.4144" transform="matrix(-1 0 0 1 866.041 199.639)" fill="#00FF08"/>
<rect width="14.4144" height="14.4144" transform="matrix(-1 0 0 1 864.599 131.893)" fill="#0022FF"/>
<rect width="25.2251" height="145.585" transform="matrix(-1 0 0 1 495.374 174.414)" fill="#0ADB81"/>
<rect width="25.2251" height="145.585" transform="matrix(-0.75463 0.656151 0.656151 0.75463 603.073 184)" fill="#0ADB81"/>
<rect width="56.216" height="93.2985" transform="matrix(-0.977436 -0.211232 -0.211232 0.977436 730.887 79.2246)" fill="#0ADB81"/>
<rect width="54.0847" height="54.0847" transform="matrix(-1 0 0 1 780.777 47.0977)" fill="#F5F5F5"/>
<path d="M658.978 90.1699L719.698 123.12L719.675 123.062L769.703 130.938L789.427 96.5801L687.156 41.082L658.978 90.1699Z" fill="#0ADB81"/>
<rect width="160.72" height="64.1439" transform="matrix(-1 0 0 1 603.48 99.459)" fill="#F5F5F5"/>
<rect width="33.153" height="54.0539" transform="matrix(-1 0 0 1 744.743 23.7832)" fill="#F5F5F5"/>
<rect width="54.0847" height="54.0847" transform="matrix(-1 0 0 1 712.906 8.92188)" fill="#F5F5F5"/>
<rect width="36.0565" height="36.0565" transform="matrix(-1 0 0 1 721.68 0)" fill="#F5F5F5"/>
<rect width="36.0565" height="36.0565" transform="matrix(-1 0 0 1 668.366 18.4668)" fill="#F5F5F5"/>
<rect width="36.0565" height="36.0565" transform="matrix(-1 0 0 1 661.139 38.9199)" fill="#F5F5F5"/>
<rect width="44.6845" height="36.0359" transform="matrix(-1 0 0 1 676.993 55.4941)" fill="#F5F5F5"/>
<rect width="36.0565" height="36.0565" transform="matrix(-1 0 0 1 682.761 74.9551)" fill="#F5F5F5"/>
<rect width="27.3873" height="36.0359" transform="matrix(-1 0 0 1 704.381 82.8848)" fill="#F5F5F5"/>
<rect width="123.964" height="59.8196" transform="matrix(-1 0 0 1 640.959 202.523)" fill="#F5F5F5"/>
<rect width="17.3635" height="75.2735" transform="matrix(-0.774227 -0.632908 -0.632908 0.774227 455.612 110.039)" fill="#F5F5F5"/>
<rect x="420.629" y="207.027" width="17.3635" height="47.891" transform="rotate(-39.265 420.629 207.027)" fill="#F5F5F5"/>
<rect x="669.03" y="124.143" width="17.3635" height="68.7759" transform="rotate(-39.265 669.03 124.143)" fill="#F5F5F5"/>
<rect x="646.198" y="122.322" width="22.476" height="68.7759" transform="rotate(-89.3652 646.198 122.322)" fill="#0ADB81"/>
<rect x="688.904" y="79.4453" width="12.4173" height="18.9446" transform="rotate(-89.3652 688.904 79.4453)" fill="#0ADB81"/>
<rect x="678.226" y="69.5312" width="12.7082" height="18.9446" transform="rotate(-179.365 678.226 69.5312)" fill="#0ADB81"/>
<rect x="694.802" y="55.8398" width="12.4173" height="18.9446" transform="rotate(-179.365 694.802 55.8398)" fill="#0ADB81"/>
<rect x="665.464" y="64.8906" width="24.499" height="26.3947" transform="rotate(-89.3652 665.464 64.8906)" fill="#0ADB81"/>
<rect x="684.925" y="69.1816" width="24.499" height="26.3947" transform="rotate(-89.3652 684.925 69.1816)" fill="#0ADB81"/>
<rect width="15.8558" height="33.8737" transform="matrix(-1 0 0 1 704.381 59.0977)" fill="#F5F5F5"/>
<rect width="5.04503" height="6.48646" transform="matrix(-0.487403 0.873177 0.873177 0.487403 777.276 95.8555)" fill="#F5F5F5"/>
<rect width="2.74736" height="26.5202" transform="matrix(-0.487403 0.873177 0.873177 0.487403 734.878 76.5664)" fill="#F5F5F5"/>
<rect x="0.973122" y="3.43208" width="7.10923" height="20.926" transform="matrix(-0.487403 0.873177 0.873177 0.487403 730.994 82.226)" stroke="#F5F5F5" stroke-width="5.04503"/>
<path d="M421.14 151.294V194.737L461.581 244.325H659.897L695.733 200.385V108.83H455.772L421.14 151.294Z" fill="#F5F5F5"/>
<path d="M626.544 232.791H713.03V171.231L690.973 122.521H626.544V232.791Z" fill="#F5F5F5"/>
<rect width="14.4144" height="14.4144" transform="matrix(-1 0 0 1 655.373 131.893)" fill="#0022FF"/>
<rect width="14.4144" height="14.4144" transform="matrix(-1 0 0 1 626.544 209.729)" fill="#FF0000"/>
<rect width="14.4144" height="14.4144" transform="matrix(-1 0 0 1 597.716 163.604)" fill="#00FF08"/>
<rect width="14.4144" height="14.4144" transform="matrix(-1 0 0 1 679.877 174.414)" fill="#E1FF00"/>
<rect width="14.4144" height="14.4144" transform="matrix(-1 0 0 1 546.544 202.523)" fill="#0022FF"/>
<rect width="14.4144" height="14.4144" transform="matrix(-1 0 0 1 542.221 131.17)" fill="#E1FF00"/>
<rect width="14.4144" height="14.4144" transform="matrix(-1 0 0 1 502.58 167.207)" fill="#FF0000"/>
<rect width="14.4144" height="14.4144" transform="matrix(-1 0 0 1 471.59 199.639)" fill="#00FF08"/>
<rect width="14.4144" height="14.4144" transform="matrix(-1 0 0 1 470.147 131.893)" fill="#0022FF"/>
</svg>
