<svg width="1399" height="378" viewBox="0 0 1399 378" fill="none" xmlns="http://www.w3.org/2000/svg">
<rect x="1279.35" y="206.027" width="29.7973" height="171.973" fill="#0ADB81"/>
<rect x="1092.05" y="206.027" width="29.7973" height="171.973" fill="#0ADB81"/>
<rect x="1001.15" y="93.584" width="66.4054" height="110.209" transform="rotate(-12.1946 1001.15 93.584)" fill="#0ADB81"/>
<rect x="942.217" y="55.6348" width="63.8879" height="63.8879" fill="#F5F5F5"/>
<path d="M1086.09 106.515L1014.37 145.438L1014.39 145.368L955.3 154.674L932 114.086L1052.81 48.5293L1086.09 106.515Z" fill="#0ADB81"/>
<rect x="1151.65" y="117.486" width="189.851" height="75.7703" fill="#F5F5F5"/>
<rect x="984.783" y="28.0938" width="39.1622" height="63.8514" fill="#F5F5F5"/>
<rect x="1022.39" y="10.5391" width="63.8879" height="63.8879" fill="#F5F5F5"/>
<rect x="1012.03" width="42.5919" height="42.5919" fill="#F5F5F5"/>
<rect x="1075" y="21.8125" width="42.5919" height="42.5919" fill="#F5F5F5"/>
<rect x="1083.54" y="45.9746" width="42.5919" height="42.5919" fill="#F5F5F5"/>
<rect x="1064.81" y="65.5527" width="52.7838" height="42.5676" fill="#F5F5F5"/>
<rect x="1058" y="88.5391" width="42.5919" height="42.5919" fill="#F5F5F5"/>
<rect x="1032.46" y="97.9062" width="32.3514" height="42.5676" fill="#F5F5F5"/>
<rect x="1107.38" y="239.23" width="146.432" height="70.6622" fill="#F5F5F5"/>
<rect x="1326.32" y="129.982" width="20.5107" height="88.9172" transform="rotate(-39.265 1326.32 129.982)" fill="#F5F5F5"/>
<rect width="20.5107" height="56.5714" transform="matrix(-0.774227 -0.632908 -0.632908 0.774227 1367.64 244.551)" fill="#F5F5F5"/>
<rect width="20.5107" height="81.2418" transform="matrix(-0.774227 -0.632908 -0.632908 0.774227 1074.22 146.645)" fill="#F5F5F5"/>
<rect width="26.5499" height="81.2418" transform="matrix(-0.0110786 -0.999939 -0.999939 0.0110786 1101.19 144.494)" fill="#0ADB81"/>
<rect width="14.668" height="22.3784" transform="matrix(-0.0110786 -0.999939 -0.999939 0.0110786 1050.74 93.8438)" fill="#0ADB81"/>
<rect width="15.0117" height="22.3784" transform="matrix(0.999939 -0.0110786 -0.0110786 -0.999939 1063.36 82.1348)" fill="#0ADB81"/>
<rect width="14.668" height="22.3784" transform="matrix(0.999939 -0.0110786 -0.0110786 -0.999939 1043.78 65.959)" fill="#0ADB81"/>
<rect width="28.9395" height="31.1789" transform="matrix(-0.0110786 -0.999939 -0.999939 0.0110786 1078.43 76.6523)" fill="#0ADB81"/>
<rect width="28.9395" height="31.1789" transform="matrix(-0.0110786 -0.999939 -0.999939 0.0110786 1055.44 81.7207)" fill="#0ADB81"/>
<rect x="1032.46" y="69.8105" width="18.7297" height="40.0135" fill="#F5F5F5"/>
<rect x="946.354" y="113.23" width="5.95946" height="7.66217" transform="rotate(60.83 946.354 113.23)" fill="#F5F5F5"/>
<rect x="996.437" y="90.4453" width="3.24533" height="31.3271" transform="rotate(60.83 996.437 90.4453)" fill="#F5F5F5"/>
<rect x="998.045" y="100.111" width="8.39782" height="24.7189" transform="rotate(60.83 998.045 100.111)" stroke="#F5F5F5" stroke-width="5.95946"/>
<path d="M1367.04 178.715V230.035L1319.27 288.608H1085.01L1042.68 236.706V128.555H1326.13L1367.04 178.715Z" fill="#F5F5F5"/>
<path d="M1124.41 274.985H1022.24V202.267L1048.3 144.729H1124.41V274.985Z" fill="#F5F5F5"/>
<rect x="1090.35" y="155.799" width="17.027" height="17.027" fill="#0022FF"/>
<rect x="1124.41" y="247.742" width="17.027" height="17.027" fill="#FF0000"/>
<rect x="1158.46" y="193.256" width="17.027" height="17.027" fill="#00FF08"/>
<rect x="1061.41" y="206.027" width="17.027" height="17.027" fill="#E1FF00"/>
<rect x="1218.91" y="239.23" width="17.027" height="17.027" fill="#0022FF"/>
<rect x="1224.01" y="154.945" width="17.027" height="17.027" fill="#E1FF00"/>
<rect x="1270.84" y="197.514" width="17.027" height="17.027" fill="#FF0000"/>
<rect x="1307.45" y="235.824" width="17.027" height="17.027" fill="#00FF08"/>
<rect x="1309.15" y="155.799" width="17.027" height="17.027" fill="#0022FF"/>
<rect x="307.114" y="224.369" width="29.7973" height="171.973" transform="rotate(-29.3532 307.114 224.369)" fill="#0ADB81"/>
<rect x="160.055" y="206.027" width="29.7973" height="171.973" fill="#0ADB81"/>
<rect x="69.1505" y="93.584" width="66.4054" height="110.209" transform="rotate(-12.1946 69.1505 93.584)" fill="#0ADB81"/>
<rect x="10.2169" y="55.6348" width="63.8879" height="63.8879" fill="#F5F5F5"/>
<path d="M154.095 106.515L82.3673 145.438L82.3947 145.368L23.2999 154.674L0.00012207 114.086L120.808 48.5293L154.095 106.515Z" fill="#0ADB81"/>
<rect x="219.651" y="117.486" width="189.851" height="75.7703" fill="#F5F5F5"/>
<rect x="52.7833" y="28.0938" width="39.1622" height="63.8514" fill="#F5F5F5"/>
<rect x="90.3907" y="10.5391" width="63.8879" height="63.8879" fill="#F5F5F5"/>
<rect x="80.0275" width="42.5919" height="42.5919" fill="#F5F5F5"/>
<rect x="143.003" y="21.8125" width="42.5919" height="42.5919" fill="#F5F5F5"/>
<rect x="151.541" y="45.9746" width="42.5919" height="42.5919" fill="#F5F5F5"/>
<rect x="132.813" y="65.5527" width="52.7838" height="42.5676" fill="#F5F5F5"/>
<rect x="125.999" y="88.5391" width="42.5919" height="42.5919" fill="#F5F5F5"/>
<rect x="100.461" y="97.9062" width="32.3514" height="42.5676" fill="#F5F5F5"/>
<rect x="175.379" y="239.23" width="146.432" height="70.6622" fill="#F5F5F5"/>
<rect x="394.32" y="129.982" width="20.5107" height="88.9172" transform="rotate(-39.265 394.32 129.982)" fill="#F5F5F5"/>
<rect width="20.5107" height="56.5714" transform="matrix(-0.774227 -0.632908 -0.632908 0.774227 435.645 244.551)" fill="#F5F5F5"/>
<rect width="20.5107" height="81.2418" transform="matrix(-0.774227 -0.632908 -0.632908 0.774227 142.219 146.645)" fill="#F5F5F5"/>
<rect width="26.5499" height="81.2418" transform="matrix(-0.0110786 -0.999939 -0.999939 0.0110786 169.189 144.494)" fill="#0ADB81"/>
<rect width="14.668" height="22.3784" transform="matrix(-0.0110786 -0.999939 -0.999939 0.0110786 118.743 93.8438)" fill="#0ADB81"/>
<rect width="15.0117" height="22.3784" transform="matrix(0.999939 -0.0110786 -0.0110786 -0.999939 131.357 82.1348)" fill="#0ADB81"/>
<rect width="14.668" height="22.3784" transform="matrix(0.999939 -0.0110786 -0.0110786 -0.999939 111.776 65.959)" fill="#0ADB81"/>
<rect width="28.9395" height="31.1789" transform="matrix(-0.0110786 -0.999939 -0.999939 0.0110786 146.432 76.6523)" fill="#0ADB81"/>
<rect width="28.9395" height="31.1789" transform="matrix(-0.0110786 -0.999939 -0.999939 0.0110786 123.444 81.7207)" fill="#0ADB81"/>
<rect x="100.461" y="69.8105" width="18.7297" height="40.0135" fill="#F5F5F5"/>
<rect x="14.3536" y="113.23" width="5.95946" height="7.66217" transform="rotate(60.83 14.3536 113.23)" fill="#F5F5F5"/>
<rect x="64.4366" y="90.4453" width="3.24533" height="31.3271" transform="rotate(60.83 64.4366 90.4453)" fill="#F5F5F5"/>
<rect x="66.045" y="100.111" width="8.39782" height="24.7189" transform="rotate(60.83 66.045 100.111)" stroke="#F5F5F5" stroke-width="5.95946"/>
<path d="M435.041 178.715V230.035L387.271 288.608H153.006L110.676 236.706V128.555H394.131L435.041 178.715Z" fill="#F5F5F5"/>
<path d="M192.405 274.985H90.2433V202.267L116.298 144.729H192.405V274.985Z" fill="#F5F5F5"/>
<rect x="158.352" y="155.799" width="17.027" height="17.027" fill="#0022FF"/>
<rect x="192.406" y="247.742" width="17.027" height="17.027" fill="#FF0000"/>
<rect x="226.459" y="193.256" width="17.027" height="17.027" fill="#00FF08"/>
<rect x="129.406" y="206.027" width="17.027" height="17.027" fill="#E1FF00"/>
<rect x="286.906" y="239.23" width="17.027" height="17.027" fill="#0022FF"/>
<rect x="292.014" y="154.945" width="17.027" height="17.027" fill="#E1FF00"/>
<rect x="338.839" y="197.514" width="17.027" height="17.027" fill="#FF0000"/>
<rect x="375.446" y="235.824" width="17.027" height="17.027" fill="#00FF08"/>
<rect x="377.151" y="155.799" width="17.027" height="17.027" fill="#0022FF"/>
<rect x="813.352" y="206.027" width="29.7973" height="171.973" fill="#0ADB81"/>
<rect x="686.131" y="217.35" width="29.7973" height="171.973" transform="rotate(41.007 686.131 217.35)" fill="#0ADB81"/>
<rect x="535.151" y="93.584" width="66.4054" height="110.209" transform="rotate(-12.1946 535.151 93.584)" fill="#0ADB81"/>
<rect x="476.217" y="55.6348" width="63.8879" height="63.8879" fill="#F5F5F5"/>
<path d="M620.095 106.515L548.367 145.438L548.395 145.368L489.3 154.674L466 114.086L586.808 48.5293L620.095 106.515Z" fill="#0ADB81"/>
<rect x="685.651" y="117.486" width="189.851" height="75.7703" fill="#F5F5F5"/>
<rect x="518.783" y="28.0938" width="39.1622" height="63.8514" fill="#F5F5F5"/>
<rect x="556.391" y="10.5391" width="63.8879" height="63.8879" fill="#F5F5F5"/>
<rect x="546.027" width="42.5919" height="42.5919" fill="#F5F5F5"/>
<rect x="609.003" y="21.8125" width="42.5919" height="42.5919" fill="#F5F5F5"/>
<rect x="617.541" y="45.9746" width="42.5919" height="42.5919" fill="#F5F5F5"/>
<rect x="598.813" y="65.5527" width="52.7838" height="42.5676" fill="#F5F5F5"/>
<rect x="591.999" y="88.5391" width="42.5919" height="42.5919" fill="#F5F5F5"/>
<rect x="566.461" y="97.9062" width="32.3514" height="42.5676" fill="#F5F5F5"/>
<rect x="641.379" y="239.23" width="146.432" height="70.6622" fill="#F5F5F5"/>
<rect x="860.32" y="129.982" width="20.5107" height="88.9172" transform="rotate(-39.265 860.32 129.982)" fill="#F5F5F5"/>
<rect width="20.5107" height="56.5714" transform="matrix(-0.774227 -0.632908 -0.632908 0.774227 901.645 244.551)" fill="#F5F5F5"/>
<rect width="20.5107" height="81.2418" transform="matrix(-0.774227 -0.632908 -0.632908 0.774227 608.219 146.645)" fill="#F5F5F5"/>
<rect width="26.5499" height="81.2418" transform="matrix(-0.0110786 -0.999939 -0.999939 0.0110786 635.189 144.494)" fill="#0ADB81"/>
<rect width="14.668" height="22.3784" transform="matrix(-0.0110786 -0.999939 -0.999939 0.0110786 584.743 93.8438)" fill="#0ADB81"/>
<rect width="15.0117" height="22.3784" transform="matrix(0.999939 -0.0110786 -0.0110786 -0.999939 597.357 82.1348)" fill="#0ADB81"/>
<rect width="14.668" height="22.3784" transform="matrix(0.999939 -0.0110786 -0.0110786 -0.999939 577.776 65.959)" fill="#0ADB81"/>
<rect width="28.9395" height="31.1789" transform="matrix(-0.0110786 -0.999939 -0.999939 0.0110786 612.432 76.6523)" fill="#0ADB81"/>
<rect width="28.9395" height="31.1789" transform="matrix(-0.0110786 -0.999939 -0.999939 0.0110786 589.444 81.7207)" fill="#0ADB81"/>
<rect x="566.461" y="69.8105" width="18.7297" height="40.0135" fill="#F5F5F5"/>
<rect x="480.354" y="113.23" width="5.95946" height="7.66217" transform="rotate(60.83 480.354 113.23)" fill="#F5F5F5"/>
<rect x="530.437" y="90.4453" width="3.24533" height="31.3271" transform="rotate(60.83 530.437 90.4453)" fill="#F5F5F5"/>
<rect x="532.045" y="100.111" width="8.39782" height="24.7189" transform="rotate(60.83 532.045 100.111)" stroke="#F5F5F5" stroke-width="5.95946"/>
<path d="M901.041 178.715V230.035L853.271 288.608H619.006L576.676 236.706V128.555H860.131L901.041 178.715Z" fill="#F5F5F5"/>
<path d="M658.405 274.985H556.243V202.267L582.298 144.729H658.405V274.985Z" fill="#F5F5F5"/>
<rect x="624.352" y="155.799" width="17.027" height="17.027" fill="#0022FF"/>
<rect x="658.406" y="247.742" width="17.027" height="17.027" fill="#FF0000"/>
<rect x="692.459" y="193.256" width="17.027" height="17.027" fill="#00FF08"/>
<rect x="595.406" y="206.027" width="17.027" height="17.027" fill="#E1FF00"/>
<rect x="752.906" y="239.23" width="17.027" height="17.027" fill="#0022FF"/>
<rect x="758.014" y="154.945" width="17.027" height="17.027" fill="#E1FF00"/>
<rect x="804.839" y="197.514" width="17.027" height="17.027" fill="#FF0000"/>
<rect x="841.446" y="235.824" width="17.027" height="17.027" fill="#00FF08"/>
<rect x="843.151" y="155.799" width="17.027" height="17.027" fill="#0022FF"/>
</svg>
