<svg width="467" height="378" viewBox="0 0 467 378" fill="none" xmlns="http://www.w3.org/2000/svg">
<rect x="347.352" y="206.027" width="29.7973" height="171.973" fill="#0ADB81"/>
<rect x="160.055" y="206.027" width="29.7973" height="171.973" fill="#0ADB81"/>
<rect x="69.1504" y="93.584" width="66.4054" height="110.209" transform="rotate(-12.1946 69.1504 93.584)" fill="#0ADB81"/>
<rect x="10.2168" y="55.6348" width="63.8879" height="63.8879" fill="#F5F5F5"/>
<path d="M154.095 106.515L82.3672 145.438L82.3945 145.368L23.2998 154.674L0 114.086L120.808 48.5293L154.095 106.515Z" fill="#0ADB81"/>
<rect x="219.65" y="117.486" width="189.851" height="75.7703" fill="#F5F5F5"/>
<rect x="52.7832" y="28.0938" width="39.1622" height="63.8514" fill="#F5F5F5"/>
<rect x="90.3906" y="10.5391" width="63.8879" height="63.8879" fill="#F5F5F5"/>
<rect x="80.0273" width="42.5919" height="42.5919" fill="#F5F5F5"/>
<rect x="143.003" y="21.8125" width="42.5919" height="42.5919" fill="#F5F5F5"/>
<rect x="151.541" y="45.9746" width="42.5919" height="42.5919" fill="#F5F5F5"/>
<rect x="132.812" y="65.5527" width="52.7838" height="42.5676" fill="#F5F5F5"/>
<rect x="125.999" y="88.5391" width="42.5919" height="42.5919" fill="#F5F5F5"/>
<rect x="100.461" y="97.9062" width="32.3514" height="42.5676" fill="#F5F5F5"/>
<rect x="175.379" y="239.23" width="146.432" height="70.6622" fill="#F5F5F5"/>
<rect x="394.32" y="129.983" width="20.5107" height="88.9172" transform="rotate(-39.265 394.32 129.983)" fill="#F5F5F5"/>
<rect width="20.5107" height="56.5714" transform="matrix(-0.774227 -0.632908 -0.632908 0.774227 435.645 244.551)" fill="#F5F5F5"/>
<rect width="20.5107" height="81.2418" transform="matrix(-0.774227 -0.632908 -0.632908 0.774227 142.219 146.645)" fill="#F5F5F5"/>
<rect width="26.5499" height="81.2418" transform="matrix(-0.0110786 -0.999939 -0.999939 0.0110786 169.188 144.494)" fill="#0ADB81"/>
<rect width="14.668" height="22.3784" transform="matrix(-0.0110786 -0.999939 -0.999939 0.0110786 118.743 93.8438)" fill="#0ADB81"/>
<rect width="15.0117" height="22.3784" transform="matrix(0.999939 -0.0110786 -0.0110786 -0.999939 131.356 82.1348)" fill="#0ADB81"/>
<rect width="14.668" height="22.3784" transform="matrix(0.999939 -0.0110786 -0.0110786 -0.999939 111.776 65.959)" fill="#0ADB81"/>
<rect width="28.9395" height="31.1789" transform="matrix(-0.0110786 -0.999939 -0.999939 0.0110786 146.432 76.6526)" fill="#0ADB81"/>
<rect width="28.9395" height="31.1789" transform="matrix(-0.0110786 -0.999939 -0.999939 0.0110786 123.444 81.7207)" fill="#0ADB81"/>
<rect x="100.461" y="69.8105" width="18.7297" height="40.0135" fill="#F5F5F5"/>
<rect x="14.3535" y="113.23" width="5.95946" height="7.66217" transform="rotate(60.83 14.3535 113.23)" fill="#F5F5F5"/>
<rect x="64.4365" y="90.4453" width="3.24533" height="31.3271" transform="rotate(60.83 64.4365 90.4453)" fill="#F5F5F5"/>
<rect x="66.0448" y="100.111" width="8.39782" height="24.7189" transform="rotate(60.83 66.0448 100.111)" stroke="#F5F5F5" stroke-width="5.95946"/>
<path d="M435.041 178.715V230.035L387.271 288.608H153.006L110.676 236.706V128.555H394.131L435.041 178.715Z" fill="#F5F5F5"/>
<path d="M192.405 274.986H90.2432V202.267L116.298 144.729H192.405V274.986Z" fill="#F5F5F5"/>
<rect x="158.352" y="155.799" width="17.027" height="17.027" fill="#0022FF"/>
<rect x="192.406" y="247.742" width="17.027" height="17.027" fill="#FF0000"/>
<rect x="226.459" y="193.256" width="17.027" height="17.027" fill="#00FF08"/>
<rect x="129.406" y="206.027" width="17.027" height="17.027" fill="#E1FF00"/>
<rect x="286.906" y="239.23" width="17.027" height="17.027" fill="#0022FF"/>
<rect x="292.014" y="154.945" width="17.027" height="17.027" fill="#E1FF00"/>
<rect x="338.839" y="197.514" width="17.027" height="17.027" fill="#FF0000"/>
<rect x="375.446" y="235.824" width="17.027" height="17.027" fill="#00FF08"/>
<rect x="377.15" y="155.799" width="17.027" height="17.027" fill="#0022FF"/>
</svg>
