<svg width="368" height="100" viewBox="0 0 368 100" fill="none" xmlns="http://www.w3.org/2000/svg">
<rect x="336.65" y="54.2156" width="7.84104" height="45.254" fill="#0ADB81"/>
<rect x="287.365" y="54.2156" width="7.84104" height="45.254" fill="#0ADB81"/>
<rect x="263.442" y="24.6262" width="17.4743" height="29.0011" transform="rotate(-12.1946 263.442 24.6262)" fill="#0ADB81"/>
<rect x="247.936" y="14.6401" width="16.8118" height="16.8118" fill="#F5F5F5"/>
<path d="M285.797 28.0291L266.919 38.2722L266.928 38.2527L251.378 40.7009L245.248 30.0212L277.037 12.7703L285.797 28.0291Z" fill="#0ADB81"/>
<rect x="303.046" y="30.9161" width="49.9586" height="19.9386" fill="#F5F5F5"/>
<rect x="259.136" y="7.39307" width="10.3054" height="16.8022" fill="#F5F5F5"/>
<rect x="269.032" y="2.77356" width="16.8118" height="16.8118" fill="#F5F5F5"/>
<rect x="266.305" width="11.2079" height="11.2079" fill="#F5F5F5"/>
<rect x="282.877" y="5.74023" width="11.2079" height="11.2079" fill="#F5F5F5"/>
<rect x="285.124" y="12.0981" width="11.2079" height="11.2079" fill="#F5F5F5"/>
<rect x="280.196" y="17.2502" width="13.8898" height="11.2015" fill="#F5F5F5"/>
<rect x="278.403" y="23.2991" width="11.2079" height="11.2079" fill="#F5F5F5"/>
<rect x="271.683" y="25.764" width="8.51313" height="11.2015" fill="#F5F5F5"/>
<rect x="291.396" y="62.9528" width="38.5331" height="18.5945" fill="#F5F5F5"/>
<rect x="349.01" y="34.2047" width="5.3973" height="23.3982" transform="rotate(-39.265 349.01 34.2047)" fill="#F5F5F5"/>
<rect width="5.3973" height="14.8865" transform="matrix(-0.774227 -0.632908 -0.632908 0.774227 359.885 64.3529)" fill="#F5F5F5"/>
<rect width="5.3973" height="21.3784" transform="matrix(-0.774227 -0.632908 -0.632908 0.774227 282.671 38.5891)" fill="#F5F5F5"/>
<rect width="6.9865" height="21.3784" transform="matrix(-0.0110786 -0.999939 -0.999939 0.0110786 289.768 38.0229)" fill="#0ADB81"/>
<rect width="3.85982" height="5.88879" transform="matrix(-0.0110786 -0.999939 -0.999939 0.0110786 276.493 24.6948)" fill="#0ADB81"/>
<rect width="3.95026" height="5.88879" transform="matrix(0.999939 -0.0110786 -0.0110786 -0.999939 279.813 21.6135)" fill="#0ADB81"/>
<rect width="3.85982" height="5.88879" transform="matrix(0.999939 -0.0110786 -0.0110786 -0.999939 274.66 17.3572)" fill="#0ADB81"/>
<rect width="7.61531" height="8.20459" transform="matrix(-0.0110786 -0.999939 -0.999939 0.0110786 283.78 20.1708)" fill="#0ADB81"/>
<rect width="7.61531" height="8.20459" transform="matrix(-0.0110786 -0.999939 -0.999939 0.0110786 277.73 21.5046)" fill="#0ADB81"/>
<rect x="271.683" y="18.3704" width="4.92865" height="10.5294" fill="#F5F5F5"/>
<rect x="249.024" y="29.796" width="1.56821" height="2.01627" transform="rotate(60.83 249.024 29.796)" fill="#F5F5F5"/>
<rect x="262.202" y="23.8002" width="0.853994" height="8.24359" transform="rotate(60.83 262.202 23.8002)" fill="#F5F5F5"/>
<rect x="262.626" y="26.3436" width="2.20985" height="6.50467" transform="rotate(60.83 262.626 26.3436)" stroke="#F5F5F5" stroke-width="1.56821"/>
<path d="M359.727 47.0282V60.5321L347.156 75.9462H285.509L274.371 62.2889V33.829H348.961L359.727 47.0282Z" fill="#F5F5F5"/>
<path d="M295.878 72.3612H268.994V53.2255L275.851 38.0848H295.878V72.3612Z" fill="#F5F5F5"/>
<rect x="286.917" y="40.998" width="4.48059" height="4.48059" fill="#0022FF"/>
<rect x="295.878" y="65.1924" width="4.48059" height="4.48059" fill="#FF0000"/>
<rect x="304.838" y="50.8547" width="4.48059" height="4.48059" fill="#00FF08"/>
<rect x="279.299" y="54.2156" width="4.48059" height="4.48059" fill="#E1FF00"/>
<rect x="320.745" y="62.9528" width="4.48059" height="4.48059" fill="#0022FF"/>
<rect x="322.089" y="40.7733" width="4.48059" height="4.48059" fill="#E1FF00"/>
<rect x="334.411" y="51.9749" width="4.48059" height="4.48059" fill="#FF0000"/>
<rect x="344.044" y="62.0562" width="4.48059" height="4.48059" fill="#00FF08"/>
<rect x="344.492" y="40.998" width="4.48059" height="4.48059" fill="#0022FF"/>
<rect x="80.8145" y="59.0422" width="7.84104" height="45.254" transform="rotate(-29.3532 80.8145 59.0422)" fill="#0ADB81"/>
<rect x="42.1172" y="54.2156" width="7.84104" height="45.254" fill="#0ADB81"/>
<rect x="18.1953" y="24.6262" width="17.4743" height="29.0011" transform="rotate(-12.1946 18.1953 24.6262)" fill="#0ADB81"/>
<rect x="2.68848" y="14.6401" width="16.8118" height="16.8118" fill="#F5F5F5"/>
<path d="M40.5488 28.0291L21.6738 38.2712L21.6816 38.2527L6.13086 40.7019L0 30.0212L31.79 12.7703L40.5488 28.0291Z" fill="#0ADB81"/>
<rect x="57.7988" y="30.9161" width="49.9586" height="19.9386" fill="#F5F5F5"/>
<rect x="13.8877" y="7.39307" width="10.3054" height="16.8022" fill="#F5F5F5"/>
<rect x="23.7852" y="2.77356" width="16.8118" height="16.8118" fill="#F5F5F5"/>
<rect x="21.0576" width="11.2079" height="11.2079" fill="#F5F5F5"/>
<rect x="37.6299" y="5.74023" width="11.2079" height="11.2079" fill="#F5F5F5"/>
<rect x="39.876" y="12.0981" width="11.2079" height="11.2079" fill="#F5F5F5"/>
<rect x="34.9482" y="17.2502" width="13.8898" height="11.2015" fill="#F5F5F5"/>
<rect x="33.1562" y="23.2991" width="11.2079" height="11.2079" fill="#F5F5F5"/>
<rect x="26.4346" y="25.764" width="8.51313" height="11.2015" fill="#F5F5F5"/>
<rect x="46.1484" y="62.9528" width="38.5331" height="18.5945" fill="#F5F5F5"/>
<rect x="103.763" y="34.2047" width="5.3973" height="23.3982" transform="rotate(-39.265 103.763 34.2047)" fill="#F5F5F5"/>
<rect width="5.3973" height="14.8865" transform="matrix(-0.774227 -0.632908 -0.632908 0.774227 114.638 64.3529)" fill="#F5F5F5"/>
<rect width="5.3973" height="21.3784" transform="matrix(-0.774227 -0.632908 -0.632908 0.774227 37.4238 38.5891)" fill="#F5F5F5"/>
<rect width="6.9865" height="21.3784" transform="matrix(-0.0110786 -0.999939 -0.999939 0.0110786 44.5205 38.0229)" fill="#0ADB81"/>
<rect width="3.85982" height="5.88879" transform="matrix(-0.0110786 -0.999939 -0.999939 0.0110786 31.2461 24.6948)" fill="#0ADB81"/>
<rect width="3.95026" height="5.88879" transform="matrix(0.999939 -0.0110786 -0.0110786 -0.999939 34.5654 21.6135)" fill="#0ADB81"/>
<rect width="3.85982" height="5.88879" transform="matrix(0.999939 -0.0110786 -0.0110786 -0.999939 29.4121 17.3572)" fill="#0ADB81"/>
<rect width="7.61531" height="8.20459" transform="matrix(-0.0110786 -0.999939 -0.999939 0.0110786 38.5322 20.1708)" fill="#0ADB81"/>
<rect width="7.61531" height="8.20459" transform="matrix(-0.0110786 -0.999939 -0.999939 0.0110786 32.4824 21.5046)" fill="#0ADB81"/>
<rect x="26.4346" y="18.3704" width="4.92865" height="10.5294" fill="#F5F5F5"/>
<rect x="3.77539" y="29.796" width="1.56821" height="2.01627" transform="rotate(60.83 3.77539 29.796)" fill="#F5F5F5"/>
<rect x="16.9551" y="23.8002" width="0.853994" height="8.24359" transform="rotate(60.83 16.9551 23.8002)" fill="#F5F5F5"/>
<rect x="17.3782" y="26.3436" width="2.20985" height="6.50467" transform="rotate(60.83 17.3782 26.3436)" stroke="#F5F5F5" stroke-width="1.56821"/>
<path d="M114.479 47.0282V60.5321L101.908 75.9462H40.2627L29.123 62.288V33.829H103.713L114.479 47.0282Z" fill="#F5F5F5"/>
<path d="M50.6299 72.3612H23.7461V53.2274L30.6035 38.0848H50.6299V72.3612Z" fill="#F5F5F5"/>
<rect x="41.6689" y="40.998" width="4.48059" height="4.48059" fill="#0022FF"/>
<rect x="50.6299" y="65.1924" width="4.48059" height="4.48059" fill="#FF0000"/>
<rect x="59.5908" y="50.8547" width="4.48059" height="4.48059" fill="#00FF08"/>
<rect x="34.0518" y="54.2156" width="4.48059" height="4.48059" fill="#E1FF00"/>
<rect x="75.4971" y="62.9528" width="4.48059" height="4.48059" fill="#0022FF"/>
<rect x="76.8408" y="40.7733" width="4.48059" height="4.48059" fill="#E1FF00"/>
<rect x="89.1631" y="51.9749" width="4.48059" height="4.48059" fill="#FF0000"/>
<rect x="98.7959" y="62.0562" width="4.48059" height="4.48059" fill="#00FF08"/>
<rect x="99.2441" y="40.998" width="4.48059" height="4.48059" fill="#0022FF"/>
<rect x="214.015" y="54.2156" width="7.84104" height="45.254" fill="#0ADB81"/>
<rect x="180.537" y="57.1949" width="7.84104" height="45.254" transform="rotate(41.007 180.537 57.1949)" fill="#0ADB81"/>
<rect x="140.807" y="24.6262" width="17.4743" height="29.0011" transform="rotate(-12.1946 140.807 24.6262)" fill="#0ADB81"/>
<rect x="125.3" y="14.6401" width="16.8118" height="16.8118" fill="#F5F5F5"/>
<path d="M163.16 28.0291L144.285 38.2712L144.293 38.2527L128.741 40.7019L122.61 30.0212L154.4 12.7703L163.16 28.0291Z" fill="#0ADB81"/>
<rect x="180.41" y="30.9161" width="49.9586" height="19.9386" fill="#F5F5F5"/>
<rect x="136.5" y="7.39307" width="10.3054" height="16.8022" fill="#F5F5F5"/>
<rect x="146.396" y="2.77356" width="16.8118" height="16.8118" fill="#F5F5F5"/>
<rect x="143.668" width="11.2079" height="11.2079" fill="#F5F5F5"/>
<rect x="160.241" y="5.74023" width="11.2079" height="11.2079" fill="#F5F5F5"/>
<rect x="162.488" y="12.0981" width="11.2079" height="11.2079" fill="#F5F5F5"/>
<rect x="157.56" y="17.2502" width="13.8898" height="11.2015" fill="#F5F5F5"/>
<rect x="155.767" y="23.2991" width="11.2079" height="11.2079" fill="#F5F5F5"/>
<rect x="149.046" y="25.764" width="8.51313" height="11.2015" fill="#F5F5F5"/>
<rect x="168.76" y="62.9528" width="38.5331" height="18.5945" fill="#F5F5F5"/>
<rect x="226.374" y="34.2047" width="5.3973" height="23.3982" transform="rotate(-39.265 226.374 34.2047)" fill="#F5F5F5"/>
<rect width="5.3973" height="14.8865" transform="matrix(-0.774227 -0.632908 -0.632908 0.774227 237.248 64.3529)" fill="#F5F5F5"/>
<rect width="5.3973" height="21.3784" transform="matrix(-0.774227 -0.632908 -0.632908 0.774227 160.035 38.5891)" fill="#F5F5F5"/>
<rect width="6.9865" height="21.3784" transform="matrix(-0.0110786 -0.999939 -0.999939 0.0110786 167.132 38.0229)" fill="#0ADB81"/>
<rect width="3.85982" height="5.88879" transform="matrix(-0.0110786 -0.999939 -0.999939 0.0110786 153.857 24.6948)" fill="#0ADB81"/>
<rect width="3.95026" height="5.88879" transform="matrix(0.999939 -0.0110786 -0.0110786 -0.999939 157.177 21.6135)" fill="#0ADB81"/>
<rect width="3.85982" height="5.88879" transform="matrix(0.999939 -0.0110786 -0.0110786 -0.999939 152.023 17.3572)" fill="#0ADB81"/>
<rect width="7.61531" height="8.20459" transform="matrix(-0.0110786 -0.999939 -0.999939 0.0110786 161.144 20.1708)" fill="#0ADB81"/>
<rect width="7.61531" height="8.20459" transform="matrix(-0.0110786 -0.999939 -0.999939 0.0110786 155.094 21.5046)" fill="#0ADB81"/>
<rect x="149.046" y="18.3704" width="4.92865" height="10.5294" fill="#F5F5F5"/>
<rect x="126.387" y="29.796" width="1.56821" height="2.01627" transform="rotate(60.83 126.387 29.796)" fill="#F5F5F5"/>
<rect x="139.566" y="23.8002" width="0.853994" height="8.24359" transform="rotate(60.83 139.566 23.8002)" fill="#F5F5F5"/>
<rect x="139.99" y="26.3436" width="2.20985" height="6.50467" transform="rotate(60.83 139.99 26.3436)" stroke="#F5F5F5" stroke-width="1.56821"/>
<path d="M237.089 47.0262V60.5331L224.519 75.9462H162.873L151.734 62.288V33.829H226.324L237.089 47.0262Z" fill="#F5F5F5"/>
<path d="M173.24 72.3612H146.357V53.2235L153.213 38.0848H173.24V72.3612Z" fill="#F5F5F5"/>
<rect x="164.28" y="40.998" width="4.48059" height="4.48059" fill="#0022FF"/>
<rect x="173.241" y="65.1924" width="4.48059" height="4.48059" fill="#FF0000"/>
<rect x="182.202" y="50.8547" width="4.48059" height="4.48059" fill="#00FF08"/>
<rect x="156.663" y="54.2156" width="4.48059" height="4.48059" fill="#E1FF00"/>
<rect x="198.109" y="62.9528" width="4.48059" height="4.48059" fill="#0022FF"/>
<rect x="199.452" y="40.7733" width="4.48059" height="4.48059" fill="#E1FF00"/>
<rect x="211.774" y="51.9749" width="4.48059" height="4.48059" fill="#FF0000"/>
<rect x="221.407" y="62.0562" width="4.48059" height="4.48059" fill="#00FF08"/>
<rect x="221.855" y="40.998" width="4.48059" height="4.48059" fill="#0022FF"/>
</svg>
