<svg width="368" height="100" viewBox="0 0 368 100" fill="none" xmlns="http://www.w3.org/2000/svg">
<rect width="7.84104" height="45.254" transform="matrix(-1 0 0 1 31.3467 54.2156)" fill="#0ADB81"/>
<rect width="7.84104" height="45.254" transform="matrix(-1 0 0 1 80.6318 54.2156)" fill="#0ADB81"/>
<rect width="17.4743" height="29.0011" transform="matrix(-0.977436 -0.211232 -0.211232 0.977436 104.555 24.6262)" fill="#0ADB81"/>
<rect width="16.8118" height="16.8118" transform="matrix(-1 0 0 1 120.062 14.6401)" fill="#F5F5F5"/>
<path d="M82.2002 28.0291L101.078 38.2722L101.069 38.2527L116.619 40.7009L122.749 30.0212L90.96 12.7703L82.2002 28.0291Z" fill="#0ADB81"/>
<rect width="49.9586" height="19.9386" transform="matrix(-1 0 0 1 64.9512 30.9161)" fill="#F5F5F5"/>
<rect width="10.3054" height="16.8022" transform="matrix(-1 0 0 1 108.861 7.39307)" fill="#F5F5F5"/>
<rect width="16.8118" height="16.8118" transform="matrix(-1 0 0 1 98.9648 2.77356)" fill="#F5F5F5"/>
<rect width="11.2079" height="11.2079" transform="matrix(-1 0 0 1 101.692 0)" fill="#F5F5F5"/>
<rect width="11.2079" height="11.2079" transform="matrix(-1 0 0 1 85.1201 5.74023)" fill="#F5F5F5"/>
<rect width="11.2079" height="11.2079" transform="matrix(-1 0 0 1 82.873 12.0981)" fill="#F5F5F5"/>
<rect width="13.8898" height="11.2015" transform="matrix(-1 0 0 1 87.8008 17.2502)" fill="#F5F5F5"/>
<rect width="11.2079" height="11.2079" transform="matrix(-1 0 0 1 89.5938 23.2991)" fill="#F5F5F5"/>
<rect width="8.51313" height="11.2015" transform="matrix(-1 0 0 1 96.3145 25.764)" fill="#F5F5F5"/>
<rect width="38.5331" height="18.5945" transform="matrix(-1 0 0 1 76.6016 62.9528)" fill="#F5F5F5"/>
<rect width="5.3973" height="23.3982" transform="matrix(-0.774227 -0.632908 -0.632908 0.774227 18.9873 34.2047)" fill="#F5F5F5"/>
<rect x="8.1123" y="64.3529" width="5.3973" height="14.8865" transform="rotate(-39.265 8.1123 64.3529)" fill="#F5F5F5"/>
<rect x="85.3262" y="38.5891" width="5.3973" height="21.3784" transform="rotate(-39.265 85.3262 38.5891)" fill="#F5F5F5"/>
<rect x="78.2295" y="38.0229" width="6.9865" height="21.3784" transform="rotate(-89.3652 78.2295 38.0229)" fill="#0ADB81"/>
<rect x="91.5039" y="24.6948" width="3.85982" height="5.88879" transform="rotate(-89.3652 91.5039 24.6948)" fill="#0ADB81"/>
<rect x="88.1836" y="21.6135" width="3.95026" height="5.88879" transform="rotate(-179.365 88.1836 21.6135)" fill="#0ADB81"/>
<rect x="93.3369" y="17.3572" width="3.85982" height="5.88879" transform="rotate(-179.365 93.3369 17.3572)" fill="#0ADB81"/>
<rect x="84.2168" y="20.1708" width="7.61531" height="8.20459" transform="rotate(-89.3652 84.2168 20.1708)" fill="#0ADB81"/>
<rect x="90.2666" y="21.5046" width="7.61531" height="8.20459" transform="rotate(-89.3652 90.2666 21.5046)" fill="#0ADB81"/>
<rect width="4.92865" height="10.5294" transform="matrix(-1 0 0 1 96.3145 18.3704)" fill="#F5F5F5"/>
<rect width="1.56821" height="2.01627" transform="matrix(-0.487403 0.873177 0.873177 0.487403 118.973 29.796)" fill="#F5F5F5"/>
<rect width="0.853994" height="8.24359" transform="matrix(-0.487403 0.873177 0.873177 0.487403 105.795 23.8002)" fill="#F5F5F5"/>
<rect x="0.302487" y="1.06684" width="2.20985" height="6.50467" transform="matrix(-0.487403 0.873177 0.873177 0.487403 104.587 25.5595)" stroke="#F5F5F5" stroke-width="1.56821"/>
<path d="M8.27051 47.0282V60.5321L20.8408 75.9462H82.4883L93.626 62.2889V33.829H19.0361L8.27051 47.0282Z" fill="#F5F5F5"/>
<path d="M72.1191 72.3612H99.0029V53.2255L92.1465 38.0848H72.1191V72.3612Z" fill="#F5F5F5"/>
<rect width="4.48059" height="4.48059" transform="matrix(-1 0 0 1 81.0801 40.998)" fill="#0022FF"/>
<rect width="4.48059" height="4.48059" transform="matrix(-1 0 0 1 72.1191 65.1924)" fill="#FF0000"/>
<rect width="4.48059" height="4.48059" transform="matrix(-1 0 0 1 63.1592 50.8547)" fill="#00FF08"/>
<rect width="4.48059" height="4.48059" transform="matrix(-1 0 0 1 88.6982 54.2156)" fill="#E1FF00"/>
<rect width="4.48059" height="4.48059" transform="matrix(-1 0 0 1 47.252 62.9528)" fill="#0022FF"/>
<rect width="4.48059" height="4.48059" transform="matrix(-1 0 0 1 45.9082 40.7733)" fill="#E1FF00"/>
<rect width="4.48059" height="4.48059" transform="matrix(-1 0 0 1 33.5859 51.9749)" fill="#FF0000"/>
<rect width="4.48059" height="4.48059" transform="matrix(-1 0 0 1 23.9531 62.0562)" fill="#00FF08"/>
<rect width="4.48059" height="4.48059" transform="matrix(-1 0 0 1 23.5049 40.998)" fill="#0022FF"/>
<rect width="7.84104" height="45.254" transform="matrix(-0.871615 -0.490191 -0.490191 0.871615 287.183 59.0422)" fill="#0ADB81"/>
<rect width="7.84104" height="45.254" transform="matrix(-1 0 0 1 325.88 54.2156)" fill="#0ADB81"/>
<rect width="17.4743" height="29.0011" transform="matrix(-0.977436 -0.211232 -0.211232 0.977436 349.802 24.6262)" fill="#0ADB81"/>
<rect width="16.8118" height="16.8118" transform="matrix(-1 0 0 1 365.309 14.6401)" fill="#F5F5F5"/>
<path d="M327.448 28.0291L346.323 38.2712L346.315 38.2527L361.866 40.7019L367.997 30.0212L336.207 12.7703L327.448 28.0291Z" fill="#0ADB81"/>
<rect width="49.9586" height="19.9386" transform="matrix(-1 0 0 1 310.198 30.9161)" fill="#F5F5F5"/>
<rect width="10.3054" height="16.8022" transform="matrix(-1 0 0 1 354.109 7.39307)" fill="#F5F5F5"/>
<rect width="16.8118" height="16.8118" transform="matrix(-1 0 0 1 344.212 2.77356)" fill="#F5F5F5"/>
<rect width="11.2079" height="11.2079" transform="matrix(-1 0 0 1 346.939 0)" fill="#F5F5F5"/>
<rect width="11.2079" height="11.2079" transform="matrix(-1 0 0 1 330.367 5.74023)" fill="#F5F5F5"/>
<rect width="11.2079" height="11.2079" transform="matrix(-1 0 0 1 328.121 12.0981)" fill="#F5F5F5"/>
<rect width="13.8898" height="11.2015" transform="matrix(-1 0 0 1 333.049 17.2502)" fill="#F5F5F5"/>
<rect width="11.2079" height="11.2079" transform="matrix(-1 0 0 1 334.841 23.2991)" fill="#F5F5F5"/>
<rect width="8.51313" height="11.2015" transform="matrix(-1 0 0 1 341.562 25.764)" fill="#F5F5F5"/>
<rect width="38.5331" height="18.5945" transform="matrix(-1 0 0 1 321.849 62.9528)" fill="#F5F5F5"/>
<rect width="5.3973" height="23.3982" transform="matrix(-0.774227 -0.632908 -0.632908 0.774227 264.234 34.2047)" fill="#F5F5F5"/>
<rect x="253.359" y="64.3529" width="5.3973" height="14.8865" transform="rotate(-39.265 253.359 64.3529)" fill="#F5F5F5"/>
<rect x="330.573" y="38.5891" width="5.3973" height="21.3784" transform="rotate(-39.265 330.573 38.5891)" fill="#F5F5F5"/>
<rect x="323.477" y="38.0229" width="6.9865" height="21.3784" transform="rotate(-89.3652 323.477 38.0229)" fill="#0ADB81"/>
<rect x="336.751" y="24.6948" width="3.85982" height="5.88879" transform="rotate(-89.3652 336.751 24.6948)" fill="#0ADB81"/>
<rect x="333.432" y="21.6135" width="3.95026" height="5.88879" transform="rotate(-179.365 333.432 21.6135)" fill="#0ADB81"/>
<rect x="338.585" y="17.3572" width="3.85982" height="5.88879" transform="rotate(-179.365 338.585 17.3572)" fill="#0ADB81"/>
<rect x="329.465" y="20.1708" width="7.61531" height="8.20459" transform="rotate(-89.3652 329.465 20.1708)" fill="#0ADB81"/>
<rect x="335.515" y="21.5046" width="7.61531" height="8.20459" transform="rotate(-89.3652 335.515 21.5046)" fill="#0ADB81"/>
<rect width="4.92865" height="10.5294" transform="matrix(-1 0 0 1 341.562 18.3704)" fill="#F5F5F5"/>
<rect width="1.56821" height="2.01627" transform="matrix(-0.487403 0.873177 0.873177 0.487403 364.222 29.796)" fill="#F5F5F5"/>
<rect width="0.853994" height="8.24359" transform="matrix(-0.487403 0.873177 0.873177 0.487403 351.042 23.8002)" fill="#F5F5F5"/>
<rect x="0.302487" y="1.06684" width="2.20985" height="6.50467" transform="matrix(-0.487403 0.873177 0.873177 0.487403 349.835 25.5595)" stroke="#F5F5F5" stroke-width="1.56821"/>
<path d="M253.519 47.0282V60.5321L266.089 75.9462H327.734L338.874 62.288V33.829H264.284L253.519 47.0282Z" fill="#F5F5F5"/>
<path d="M317.367 72.3612H344.251V53.2274L337.394 38.0848H317.367V72.3612Z" fill="#F5F5F5"/>
<rect width="4.48059" height="4.48059" transform="matrix(-1 0 0 1 326.328 40.998)" fill="#0022FF"/>
<rect width="4.48059" height="4.48059" transform="matrix(-1 0 0 1 317.367 65.1924)" fill="#FF0000"/>
<rect width="4.48059" height="4.48059" transform="matrix(-1 0 0 1 308.406 50.8547)" fill="#00FF08"/>
<rect width="4.48059" height="4.48059" transform="matrix(-1 0 0 1 333.945 54.2156)" fill="#E1FF00"/>
<rect width="4.48059" height="4.48059" transform="matrix(-1 0 0 1 292.5 62.9528)" fill="#0022FF"/>
<rect width="4.48059" height="4.48059" transform="matrix(-1 0 0 1 291.156 40.7733)" fill="#E1FF00"/>
<rect width="4.48059" height="4.48059" transform="matrix(-1 0 0 1 278.834 51.9749)" fill="#FF0000"/>
<rect width="4.48059" height="4.48059" transform="matrix(-1 0 0 1 269.201 62.0562)" fill="#00FF08"/>
<rect width="4.48059" height="4.48059" transform="matrix(-1 0 0 1 268.753 40.998)" fill="#0022FF"/>
<rect width="7.84104" height="45.254" transform="matrix(-1 0 0 1 153.983 54.2156)" fill="#0ADB81"/>
<rect width="7.84104" height="45.254" transform="matrix(-0.75463 0.656151 0.656151 0.75463 187.461 57.1949)" fill="#0ADB81"/>
<rect width="17.4743" height="29.0011" transform="matrix(-0.977436 -0.211232 -0.211232 0.977436 227.191 24.6262)" fill="#0ADB81"/>
<rect width="16.8118" height="16.8118" transform="matrix(-1 0 0 1 242.698 14.6401)" fill="#F5F5F5"/>
<path d="M204.838 28.0291L223.713 38.2712L223.705 38.2527L239.257 40.7019L245.388 30.0212L213.598 12.7703L204.838 28.0291Z" fill="#0ADB81"/>
<rect width="49.9586" height="19.9386" transform="matrix(-1 0 0 1 187.588 30.9161)" fill="#F5F5F5"/>
<rect width="10.3054" height="16.8022" transform="matrix(-1 0 0 1 231.498 7.39307)" fill="#F5F5F5"/>
<rect width="16.8118" height="16.8118" transform="matrix(-1 0 0 1 221.602 2.77356)" fill="#F5F5F5"/>
<rect width="11.2079" height="11.2079" transform="matrix(-1 0 0 1 224.33 0)" fill="#F5F5F5"/>
<rect width="11.2079" height="11.2079" transform="matrix(-1 0 0 1 207.757 5.74023)" fill="#F5F5F5"/>
<rect width="11.2079" height="11.2079" transform="matrix(-1 0 0 1 205.51 12.0981)" fill="#F5F5F5"/>
<rect width="13.8898" height="11.2015" transform="matrix(-1 0 0 1 210.438 17.2502)" fill="#F5F5F5"/>
<rect width="11.2079" height="11.2079" transform="matrix(-1 0 0 1 212.231 23.2991)" fill="#F5F5F5"/>
<rect width="8.51313" height="11.2015" transform="matrix(-1 0 0 1 218.952 25.764)" fill="#F5F5F5"/>
<rect width="38.5331" height="18.5945" transform="matrix(-1 0 0 1 199.238 62.9528)" fill="#F5F5F5"/>
<rect width="5.3973" height="23.3982" transform="matrix(-0.774227 -0.632908 -0.632908 0.774227 141.624 34.2047)" fill="#F5F5F5"/>
<rect x="130.75" y="64.3529" width="5.3973" height="14.8865" transform="rotate(-39.265 130.75 64.3529)" fill="#F5F5F5"/>
<rect x="207.963" y="38.5891" width="5.3973" height="21.3784" transform="rotate(-39.265 207.963 38.5891)" fill="#F5F5F5"/>
<rect x="200.866" y="38.0229" width="6.9865" height="21.3784" transform="rotate(-89.3652 200.866 38.0229)" fill="#0ADB81"/>
<rect x="214.141" y="24.6948" width="3.85982" height="5.88879" transform="rotate(-89.3652 214.141 24.6948)" fill="#0ADB81"/>
<rect x="210.821" y="21.6135" width="3.95026" height="5.88879" transform="rotate(-179.365 210.821 21.6135)" fill="#0ADB81"/>
<rect x="215.975" y="17.3572" width="3.85982" height="5.88879" transform="rotate(-179.365 215.975 17.3572)" fill="#0ADB81"/>
<rect x="206.854" y="20.1708" width="7.61531" height="8.20459" transform="rotate(-89.3652 206.854 20.1708)" fill="#0ADB81"/>
<rect x="212.904" y="21.5046" width="7.61531" height="8.20459" transform="rotate(-89.3652 212.904 21.5046)" fill="#0ADB81"/>
<rect width="4.92865" height="10.5294" transform="matrix(-1 0 0 1 218.952 18.3704)" fill="#F5F5F5"/>
<rect width="1.56821" height="2.01627" transform="matrix(-0.487403 0.873177 0.873177 0.487403 241.611 29.796)" fill="#F5F5F5"/>
<rect width="0.853994" height="8.24359" transform="matrix(-0.487403 0.873177 0.873177 0.487403 228.432 23.8002)" fill="#F5F5F5"/>
<rect x="0.302487" y="1.06684" width="2.20985" height="6.50467" transform="matrix(-0.487403 0.873177 0.873177 0.487403 227.224 25.5595)" stroke="#F5F5F5" stroke-width="1.56821"/>
<path d="M130.909 47.0262V60.5331L143.479 75.9462H205.125L216.264 62.288V33.829H141.674L130.909 47.0262Z" fill="#F5F5F5"/>
<path d="M194.758 72.3612H221.641V53.2235L214.785 38.0848H194.758V72.3612Z" fill="#F5F5F5"/>
<rect width="4.48059" height="4.48059" transform="matrix(-1 0 0 1 203.718 40.998)" fill="#0022FF"/>
<rect width="4.48059" height="4.48059" transform="matrix(-1 0 0 1 194.757 65.1924)" fill="#FF0000"/>
<rect width="4.48059" height="4.48059" transform="matrix(-1 0 0 1 185.796 50.8547)" fill="#00FF08"/>
<rect width="4.48059" height="4.48059" transform="matrix(-1 0 0 1 211.335 54.2156)" fill="#E1FF00"/>
<rect width="4.48059" height="4.48059" transform="matrix(-1 0 0 1 169.889 62.9528)" fill="#0022FF"/>
<rect width="4.48059" height="4.48059" transform="matrix(-1 0 0 1 168.546 40.7733)" fill="#E1FF00"/>
<rect width="4.48059" height="4.48059" transform="matrix(-1 0 0 1 156.224 51.9749)" fill="#FF0000"/>
<rect width="4.48059" height="4.48059" transform="matrix(-1 0 0 1 146.591 62.0562)" fill="#00FF08"/>
<rect width="4.48059" height="4.48059" transform="matrix(-1 0 0 1 146.143 40.998)" fill="#0022FF"/>
</svg>
