<svg width="1439" height="1239" viewBox="0 0 1439 1239" fill="none" xmlns="http://www.w3.org/2000/svg">
<rect x="628.607" y="419.951" width="183.347" height="64.3846" fill="#F5F5F5"/>
<rect x="273" y="464.721" width="188.746" height="188.746" fill="#F5F5F5"/>
<rect x="978.812" y="464.721" width="188.746" height="188.746" fill="#F5F5F5"/>
<rect x="374.114" y="653.268" width="87.6322" height="348.546" fill="#0ADB81"/>
<rect x="551.758" y="890.391" width="87.6322" height="348.546" fill="#0ADB81"/>
<rect x="800.773" y="890.391" width="87.6322" height="348.546" fill="#0ADB81"/>
<rect x="978.812" y="653.268" width="87.6322" height="348.546" fill="#0ADB81"/>
<rect x="461.749" y="483.955" width="517.068" height="406.438" fill="#F5F5F5"/>
<rect x="522.019" y="531.139" width="396.524" height="312.065" fill="#0ADB81"/>
<rect x="609.253" y="599.738" width="222.054" height="174.868" fill="#F5F5F5"/>
<rect x="369" y="979" width="96" height="27" fill="black"/>
<rect x="974" y="979" width="96" height="27" fill="black"/>
<rect x="796" y="1212" width="96" height="27" fill="black"/>
<rect x="547" y="1212" width="96" height="27" fill="black"/>
<rect x="245.295" y="19.6875" width="417.532" height="198.361" fill="#0ADB81"/>
<rect x="101.395" y="140.121" width="368.385" height="113.349" fill="#0ADB81"/>
<rect x="101.395" y="186.611" width="143.9" height="113.349" fill="#0ADB81"/>
<rect x="53.5762" y="73.7051" width="84.1263" height="113.349" fill="#0ADB81"/>
<rect y="46.2539" width="84.1263" height="84.1263" fill="#0ADB81"/>
<rect x="101.395" y="19.6875" width="76.1564" height="198.361" fill="#0ADB81"/>
<rect width="417.532" height="198.361" transform="matrix(-1 0 0 1 1193.71 19.6875)" fill="#0ADB81"/>
<rect width="368.385" height="113.349" transform="matrix(-1 0 0 1 1337.61 140.121)" fill="#0ADB81"/>
<rect width="143.9" height="113.349" transform="matrix(-1 0 0 1 1337.61 186.611)" fill="#0ADB81"/>
<rect width="84.1263" height="113.349" transform="matrix(-1 0 0 1 1385.43 73.7051)" fill="#0ADB81"/>
<rect width="84.1263" height="84.1263" transform="matrix(-1 0 0 1 1439 46.2539)" fill="#0ADB81"/>
<rect width="76.1564" height="198.361" transform="matrix(-1 0 0 1 1337.61 19.6875)" fill="#0ADB81"/>
<rect x="514.002" y="105" width="411" height="82" fill="#F5F5F5"/>
<rect x="448.083" y="186.611" width="542.836" height="142.129" fill="#F5F5F5"/>
<rect x="412.002" y="327" width="615" height="108" fill="#F5F5F5"/>
<rect x="686.292" y="344.238" width="66.4155" height="26.5662" fill="black"/>
<rect x="556" y="413" width="327" height="22" fill="black"/>
<rect x="588.002" y="205" width="66.4155" height="26.5662" fill="black"/>
<rect x="787.002" y="205" width="66.4155" height="26.5662" fill="black"/>
<rect x="688.002" y="127" width="66.4155" height="26.5662" fill="black"/>
<rect x="708.002" y="413" width="42" height="23" transform="rotate(-90 708.002 413)" fill="black"/>
<rect x="534.002" y="435" width="64" height="22" transform="rotate(-90 534.002 435)" fill="black"/>
<rect x="883.002" y="435" width="64" height="22" transform="rotate(-90 883.002 435)" fill="black"/>
<path d="M691.22 168.233L747.616 168.333L775.729 217.223L747.444 266.015L691.048 265.915L662.935 217.025L691.22 168.233Z" fill="#21A86E"/>
<path d="M788.906 244.911L845.303 245.011L873.415 293.901L845.131 342.692L788.734 342.593L760.622 293.702L788.906 244.911Z" fill="#21A86E"/>
<path d="M593.536 244.911L649.933 245.011L678.045 293.901L649.761 342.692L593.364 342.593L565.252 293.702L593.536 244.911Z" fill="#21A86E"/>
<rect x="588.111" y="280.383" width="66.4155" height="26.5662" fill="#F5F5F5"/>
<rect x="686.132" y="203.633" width="66.4155" height="26.5662" fill="#F5F5F5"/>
<rect x="783.735" y="280.383" width="66.4155" height="26.5662" fill="#F5F5F5"/>
<path d="M566.42 293.522L593.741 245.346H649.008L677.163 293.522" stroke="#131313" stroke-width="4.17112"/>
<path d="M761.629 293.522L788.95 245.346H844.217L872.372 293.522" stroke="#131313" stroke-width="4.17112"/>
<path d="M665.275 216.772L692.596 168.596H747.864L776.019 216.772" stroke="#131313" stroke-width="4.17112"/>
<rect x="24.002" y="2" width="60" height="60" fill="#FF0000"/>
<rect x="1083" y="223" width="60" height="60" fill="#FF0000"/>
<rect x="24.002" y="167" width="60" height="60" fill="#0022FF"/>
<rect x="1164" width="60" height="60" fill="#0022FF"/>
<rect x="422.002" y="2" width="60" height="60" fill="#00FF09"/>
<rect x="967.002" y="67" width="60" height="60" fill="#00FF09"/>
<rect x="412.002" y="163" width="60" height="60" fill="#E1FF00"/>
<rect x="1305" y="158" width="60" height="60" fill="#E1FF00"/>
</svg>
