<svg width="2077" height="1784" viewBox="0 0 2077 1784" fill="none" xmlns="http://www.w3.org/2000/svg">
<g opacity="0.65">
<path d="M1992.38 1027.98C1992.38 1027.98 831.311 1380.68 87.8796 750.807" stroke="white" stroke-width="17.3248"/>
<path d="M1165.58 1155.97L1150.97 1122.18L1120.68 1121.03L1103.54 1153.61L1165.58 1155.97Z" fill="white"/>
<path d="M1130.83 1277.03L1063.14 1148.76L1208.07 1154.27L1130.83 1277.03Z" fill="#1500FF"/>
<path d="M803.899 1115.27L795.226 1079.5L765.563 1073.23L743.16 1102.44L803.899 1115.27Z" fill="white"/>
<path d="M749.148 1228.69L704.162 1090.81L846.065 1120.79L749.148 1228.69Z" fill="#1500FF"/>
<path d="M354.744 983.337L359.111 946.789L333.505 930.555L302.312 950.097L354.744 983.337Z" fill="white"/>
<path d="M263.828 1070.49L269.833 925.578L392.328 1003.24L263.828 1070.49Z" fill="#1500FF"/>
<path d="M1574.19 1142.29L1553.95 1111.55L1523.91 1115.67L1512.69 1150.72L1574.19 1142.29Z" fill="white"/>
<path d="M1560.97 1267.53L1472.05 1152.95L1615.74 1133.24L1560.97 1267.53Z" fill="#FFFB00"/>
<path d="M995.241 1145.96L983.919 1110.94L953.87 1106.9L933.713 1137.7L995.241 1145.96Z" fill="white"/>
<path d="M949.12 1263.16L893.954 1129.02L1037.7 1148.31L949.12 1263.16Z" fill="#FFFB00"/>
<path d="M607.837 1067.52L603.936 1030.92L575.352 1020.81L549.309 1046.82L607.837 1067.52Z" fill="white"/>
<path d="M538.666 1172.77L512.174 1030.17L648.912 1078.53L538.666 1172.77Z" fill="#FFFB00"/>
<path d="M1776.62 1108.59L1754.79 1078.95L1725.01 1084.64L1715.64 1120.23L1776.62 1108.59Z" fill="white"/>
<path d="M1769.95 1234.37L1675.17 1124.59L1817.64 1097.39L1769.95 1234.37Z" fill="#FF0000"/>
<path d="M1379.06 1156.6L1362.79 1123.59L1332.47 1123.94L1316.98 1157.33L1379.06 1156.6Z" fill="white"/>
<path d="M1350.37 1279.24L1276.39 1154.49L1421.41 1152.8L1350.37 1279.24Z" fill="#FF0000"/>
</g>
</svg>
