<svg width="74" height="60" viewBox="0 0 74 60" fill="none" xmlns="http://www.w3.org/2000/svg">
<rect width="4.72693" height="27.2812" transform="matrix(-1 0 0 1 18.8966 32.6834)" fill="#0ADB81"/>
<rect width="4.72693" height="27.2812" transform="matrix(-1 0 0 1 48.6095 32.6834)" fill="#0ADB81"/>
<rect width="10.5343" height="17.4832" transform="matrix(-0.977436 -0.211232 -0.211232 0.977436 63.0304 14.8458)" fill="#0ADB81"/>
<rect width="10.1349" height="10.1349" transform="matrix(-1 0 0 1 72.38 8.82568)" fill="#F5F5F5"/>
<path d="M49.5548 16.8967L60.9347 23.0715L60.9298 23.0608L70.3048 24.5364L74.0001 18.0979L54.8351 7.69849L49.5548 16.8967Z" fill="#0ADB81"/>
<rect width="30.1173" height="12.0199" transform="matrix(-1 0 0 1 39.1554 18.6376)" fill="#F5F5F5"/>
<rect width="6.21254" height="10.1291" transform="matrix(-1 0 0 1 65.6261 4.45667)" fill="#F5F5F5"/>
<rect width="10.1349" height="10.1349" transform="matrix(-1 0 0 1 59.6613 1.67194)" fill="#F5F5F5"/>
<rect width="6.75662" height="6.75662" transform="matrix(-1 0 0 1 61.3048 0)" fill="#F5F5F5"/>
<rect width="6.75662" height="6.75662" transform="matrix(-1 0 0 1 51.3146 3.46027)" fill="#F5F5F5"/>
<rect width="6.75662" height="6.75662" transform="matrix(-1 0 0 1 49.9601 7.29321)" fill="#F5F5F5"/>
<rect width="8.37343" height="6.75276" transform="matrix(-1 0 0 1 52.9308 10.399)" fill="#F5F5F5"/>
<rect width="6.75662" height="6.75662" transform="matrix(-1 0 0 1 54.0118 14.0455)" fill="#F5F5F5"/>
<rect width="5.1321" height="6.75276" transform="matrix(-1 0 0 1 58.0626 15.5315)" fill="#F5F5F5"/>
<rect width="23.2295" height="11.2096" transform="matrix(-1 0 0 1 46.1788 37.9506)" fill="#F5F5F5"/>
<rect width="3.25374" height="14.1055" transform="matrix(-0.774227 -0.632908 -0.632908 0.774227 11.4464 20.6199)" fill="#F5F5F5"/>
<rect x="4.89075" y="38.7946" width="3.25374" height="8.97428" transform="rotate(-39.265 4.89075 38.7946)" fill="#F5F5F5"/>
<rect x="51.4386" y="23.2632" width="3.25374" height="12.8879" transform="rotate(-39.265 51.4386 23.2632)" fill="#F5F5F5"/>
<rect x="47.1613" y="22.922" width="4.21178" height="12.8879" transform="rotate(-89.3652 47.1613 22.922)" fill="#0ADB81"/>
<rect x="55.1632" y="14.887" width="2.32687" height="3.55003" transform="rotate(-89.3652 55.1632 14.887)" fill="#0ADB81"/>
<rect x="53.1622" y="13.0295" width="2.38139" height="3.55003" transform="rotate(-179.365 53.1622 13.0295)" fill="#0ADB81"/>
<rect x="56.2687" y="10.4635" width="2.32687" height="3.55003" transform="rotate(-179.365 56.2687 10.4635)" fill="#0ADB81"/>
<rect x="50.7706" y="12.1599" width="4.59086" height="4.9461" transform="rotate(-89.3652 50.7706 12.1599)" fill="#0ADB81"/>
<rect x="54.4171" y="12.9639" width="4.59086" height="4.9461" transform="rotate(-89.3652 54.4171 12.9639)" fill="#0ADB81"/>
<rect width="2.97122" height="6.3476" transform="matrix(-1 0 0 1 58.0626 11.0745)" fill="#F5F5F5"/>
<rect width="0.945387" height="1.2155" transform="matrix(-0.487403 0.873177 0.873177 0.487403 71.7228 17.9625)" fill="#F5F5F5"/>
<rect width="0.514827" height="4.96961" transform="matrix(-0.487403 0.873177 0.873177 0.487403 63.7784 14.3479)" fill="#F5F5F5"/>
<rect x="0.182353" y="0.643137" width="1.3322" height="3.92131" transform="matrix(-0.487403 0.873177 0.873177 0.487403 63.0496 15.4085)" stroke="#F5F5F5" stroke-width="0.945387"/>
<path d="M4.98645 28.3515V36.4911L12.5646 45.7841H49.7277L56.4425 37.5497V20.3935H11.4767L4.98645 28.3515Z" fill="#F5F5F5"/>
<path d="M43.4777 43.6223H59.6847V32.0872L55.5509 22.9592H43.4777V43.6223Z" fill="#F5F5F5"/>
<rect width="2.70111" height="2.70111" transform="matrix(-1 0 0 1 48.88 24.7153)" fill="#0022FF"/>
<rect width="2.70111" height="2.70111" transform="matrix(-1 0 0 1 43.4777 39.3009)" fill="#FF0000"/>
<rect width="2.70111" height="2.70111" transform="matrix(-1 0 0 1 38.0763 30.6574)" fill="#00FF08"/>
<rect width="2.70111" height="2.70111" transform="matrix(-1 0 0 1 53.4718 32.6834)" fill="#E1FF00"/>
<rect width="2.70111" height="2.70111" transform="matrix(-1 0 0 1 28.4865 37.9506)" fill="#0022FF"/>
<rect width="2.70111" height="2.70111" transform="matrix(-1 0 0 1 27.6759 24.58)" fill="#E1FF00"/>
<rect width="2.70111" height="2.70111" transform="matrix(-1 0 0 1 20.2482 31.3329)" fill="#FF0000"/>
<rect width="2.70111" height="2.70111" transform="matrix(-1 0 0 1 14.4406 37.4103)" fill="#00FF08"/>
<rect width="2.70111" height="2.70111" transform="matrix(-1 0 0 1 14.17 24.7153)" fill="#0022FF"/>
</svg>
