<svg width="1399" height="378" viewBox="0 0 1399 378" fill="none" xmlns="http://www.w3.org/2000/svg">
<rect width="29.7973" height="171.973" transform="matrix(-1 0 0 1 119.125 206.027)" fill="#0ADB81"/>
<rect width="29.7973" height="171.973" transform="matrix(-1 0 0 1 306.422 206.027)" fill="#0ADB81"/>
<rect width="66.4054" height="110.209" transform="matrix(-0.977436 -0.211232 -0.211232 0.977436 397.326 93.584)" fill="#0ADB81"/>
<rect width="63.8879" height="63.8879" transform="matrix(-1 0 0 1 456.26 55.6348)" fill="#F5F5F5"/>
<path d="M312.382 106.515L384.109 145.438L384.082 145.368L443.177 154.674L466.477 114.086L345.669 48.5293L312.382 106.515Z" fill="#0ADB81"/>
<rect width="189.851" height="75.7703" transform="matrix(-1 0 0 1 246.826 117.486)" fill="#F5F5F5"/>
<rect width="39.1622" height="63.8514" transform="matrix(-1 0 0 1 413.693 28.0938)" fill="#F5F5F5"/>
<rect width="63.8879" height="63.8879" transform="matrix(-1 0 0 1 376.086 10.5391)" fill="#F5F5F5"/>
<rect width="42.5919" height="42.5919" transform="matrix(-1 0 0 1 386.449 0)" fill="#F5F5F5"/>
<rect width="42.5919" height="42.5919" transform="matrix(-1 0 0 1 323.474 21.8125)" fill="#F5F5F5"/>
<rect width="42.5919" height="42.5919" transform="matrix(-1 0 0 1 314.936 45.9746)" fill="#F5F5F5"/>
<rect width="52.7838" height="42.5676" transform="matrix(-1 0 0 1 333.664 65.5527)" fill="#F5F5F5"/>
<rect width="42.5919" height="42.5919" transform="matrix(-1 0 0 1 340.478 88.5391)" fill="#F5F5F5"/>
<rect width="32.3514" height="42.5676" transform="matrix(-1 0 0 1 366.016 97.9062)" fill="#F5F5F5"/>
<rect width="146.432" height="70.6622" transform="matrix(-1 0 0 1 291.098 239.23)" fill="#F5F5F5"/>
<rect width="20.5107" height="88.9172" transform="matrix(-0.774227 -0.632908 -0.632908 0.774227 72.1562 129.983)" fill="#F5F5F5"/>
<rect x="30.832" y="244.551" width="20.5107" height="56.5714" transform="rotate(-39.265 30.832 244.551)" fill="#F5F5F5"/>
<rect x="324.258" y="146.645" width="20.5107" height="81.2419" transform="rotate(-39.265 324.258 146.645)" fill="#F5F5F5"/>
<rect x="297.288" y="144.494" width="26.5499" height="81.2419" transform="rotate(-89.3652 297.288 144.494)" fill="#0ADB81"/>
<rect x="347.733" y="93.8438" width="14.668" height="22.3784" transform="rotate(-89.3652 347.733 93.8438)" fill="#0ADB81"/>
<rect x="335.12" y="82.1348" width="15.0117" height="22.3784" transform="rotate(-179.365 335.12 82.1348)" fill="#0ADB81"/>
<rect x="354.7" y="65.959" width="14.668" height="22.3784" transform="rotate(-179.365 354.7 65.959)" fill="#0ADB81"/>
<rect x="320.045" y="76.6526" width="28.9395" height="31.1789" transform="rotate(-89.3652 320.045 76.6526)" fill="#0ADB81"/>
<rect x="343.032" y="81.7207" width="28.9395" height="31.1789" transform="rotate(-89.3652 343.032 81.7207)" fill="#0ADB81"/>
<rect width="18.7297" height="40.0135" transform="matrix(-1 0 0 1 366.016 69.8105)" fill="#F5F5F5"/>
<rect width="5.95946" height="7.66217" transform="matrix(-0.487403 0.873177 0.873177 0.487403 452.123 113.23)" fill="#F5F5F5"/>
<rect width="3.24533" height="31.3271" transform="matrix(-0.487403 0.873177 0.873177 0.487403 402.04 90.4453)" fill="#F5F5F5"/>
<rect x="1.14951" y="4.05416" width="8.39782" height="24.7189" transform="matrix(-0.487403 0.873177 0.873177 0.487403 397.452 97.1311)" stroke="#F5F5F5" stroke-width="5.95946"/>
<path d="M31.4355 178.715V230.035L79.2061 288.608H313.471L355.801 236.706V128.555H72.3457L31.4355 178.715Z" fill="#F5F5F5"/>
<path d="M274.071 274.986H376.233V202.267L350.179 144.729H274.071V274.986Z" fill="#F5F5F5"/>
<rect width="17.027" height="17.027" transform="matrix(-1 0 0 1 308.125 155.799)" fill="#0022FF"/>
<rect width="17.027" height="17.027" transform="matrix(-1 0 0 1 274.07 247.742)" fill="#FF0000"/>
<rect width="17.027" height="17.027" transform="matrix(-1 0 0 1 240.018 193.256)" fill="#00FF08"/>
<rect width="17.027" height="17.027" transform="matrix(-1 0 0 1 337.07 206.027)" fill="#E1FF00"/>
<rect width="17.027" height="17.027" transform="matrix(-1 0 0 1 179.57 239.23)" fill="#0022FF"/>
<rect width="17.027" height="17.027" transform="matrix(-1 0 0 1 174.463 154.945)" fill="#E1FF00"/>
<rect width="17.027" height="17.027" transform="matrix(-1 0 0 1 127.638 197.514)" fill="#FF0000"/>
<rect width="17.027" height="17.027" transform="matrix(-1 0 0 1 91.0303 235.824)" fill="#00FF08"/>
<rect width="17.027" height="17.027" transform="matrix(-1 0 0 1 89.3262 155.799)" fill="#0022FF"/>
<rect width="29.7973" height="171.973" transform="matrix(-0.871615 -0.490191 -0.490191 0.871615 1091.36 224.37)" fill="#0ADB81"/>
<rect width="29.7973" height="171.973" transform="matrix(-1 0 0 1 1238.42 206.027)" fill="#0ADB81"/>
<rect width="66.4054" height="110.209" transform="matrix(-0.977436 -0.211232 -0.211232 0.977436 1329.33 93.584)" fill="#0ADB81"/>
<rect width="63.8879" height="63.8879" transform="matrix(-1 0 0 1 1388.26 55.6348)" fill="#F5F5F5"/>
<path d="M1244.38 106.515L1316.11 145.438L1316.08 145.368L1375.18 154.674L1398.48 114.086L1277.67 48.5293L1244.38 106.515Z" fill="#0ADB81"/>
<rect width="189.851" height="75.7703" transform="matrix(-1 0 0 1 1178.83 117.486)" fill="#F5F5F5"/>
<rect width="39.1622" height="63.8514" transform="matrix(-1 0 0 1 1345.69 28.0938)" fill="#F5F5F5"/>
<rect width="63.8879" height="63.8879" transform="matrix(-1 0 0 1 1308.09 10.5391)" fill="#F5F5F5"/>
<rect width="42.5919" height="42.5919" transform="matrix(-1 0 0 1 1318.45 0)" fill="#F5F5F5"/>
<rect width="42.5919" height="42.5919" transform="matrix(-1 0 0 1 1255.47 21.8125)" fill="#F5F5F5"/>
<rect width="42.5919" height="42.5919" transform="matrix(-1 0 0 1 1246.94 45.9746)" fill="#F5F5F5"/>
<rect width="52.7838" height="42.5676" transform="matrix(-1 0 0 1 1265.66 65.5527)" fill="#F5F5F5"/>
<rect width="42.5919" height="42.5919" transform="matrix(-1 0 0 1 1272.48 88.5391)" fill="#F5F5F5"/>
<rect width="32.3514" height="42.5676" transform="matrix(-1 0 0 1 1298.02 97.9062)" fill="#F5F5F5"/>
<rect width="146.432" height="70.6622" transform="matrix(-1 0 0 1 1223.1 239.23)" fill="#F5F5F5"/>
<rect width="20.5107" height="88.9172" transform="matrix(-0.774227 -0.632908 -0.632908 0.774227 1004.16 129.983)" fill="#F5F5F5"/>
<rect x="962.832" y="244.551" width="20.5107" height="56.5714" transform="rotate(-39.265 962.832 244.551)" fill="#F5F5F5"/>
<rect x="1256.26" y="146.645" width="20.5107" height="81.2419" transform="rotate(-39.265 1256.26 146.645)" fill="#F5F5F5"/>
<rect x="1229.29" y="144.494" width="26.5499" height="81.2419" transform="rotate(-89.3652 1229.29 144.494)" fill="#0ADB81"/>
<rect x="1279.73" y="93.8438" width="14.668" height="22.3784" transform="rotate(-89.3652 1279.73 93.8438)" fill="#0ADB81"/>
<rect x="1267.12" y="82.1348" width="15.0117" height="22.3784" transform="rotate(-179.365 1267.12 82.1348)" fill="#0ADB81"/>
<rect x="1286.7" y="65.959" width="14.668" height="22.3784" transform="rotate(-179.365 1286.7 65.959)" fill="#0ADB81"/>
<rect x="1252.04" y="76.6526" width="28.9395" height="31.1789" transform="rotate(-89.3652 1252.04 76.6526)" fill="#0ADB81"/>
<rect x="1275.03" y="81.7207" width="28.9395" height="31.1789" transform="rotate(-89.3652 1275.03 81.7207)" fill="#0ADB81"/>
<rect width="18.7297" height="40.0135" transform="matrix(-1 0 0 1 1298.02 69.8105)" fill="#F5F5F5"/>
<rect width="5.95946" height="7.66217" transform="matrix(-0.487403 0.873177 0.873177 0.487403 1384.12 113.23)" fill="#F5F5F5"/>
<rect width="3.24533" height="31.3271" transform="matrix(-0.487403 0.873177 0.873177 0.487403 1334.04 90.4453)" fill="#F5F5F5"/>
<rect x="1.14951" y="4.05416" width="8.39782" height="24.7189" transform="matrix(-0.487403 0.873177 0.873177 0.487403 1329.45 97.1311)" stroke="#F5F5F5" stroke-width="5.95946"/>
<path d="M963.436 178.715V230.035L1011.21 288.608H1245.47L1287.8 236.706V128.555H1004.35L963.436 178.715Z" fill="#F5F5F5"/>
<path d="M1206.07 274.986H1308.23V202.267L1282.18 144.729H1206.07V274.986Z" fill="#F5F5F5"/>
<rect width="17.027" height="17.027" transform="matrix(-1 0 0 1 1240.12 155.799)" fill="#0022FF"/>
<rect width="17.027" height="17.027" transform="matrix(-1 0 0 1 1206.07 247.742)" fill="#FF0000"/>
<rect width="17.027" height="17.027" transform="matrix(-1 0 0 1 1172.02 193.256)" fill="#00FF08"/>
<rect width="17.027" height="17.027" transform="matrix(-1 0 0 1 1269.07 206.027)" fill="#E1FF00"/>
<rect width="17.027" height="17.027" transform="matrix(-1 0 0 1 1111.57 239.23)" fill="#0022FF"/>
<rect width="17.027" height="17.027" transform="matrix(-1 0 0 1 1106.46 154.945)" fill="#E1FF00"/>
<rect width="17.027" height="17.027" transform="matrix(-1 0 0 1 1059.64 197.514)" fill="#FF0000"/>
<rect width="17.027" height="17.027" transform="matrix(-1 0 0 1 1023.03 235.824)" fill="#00FF08"/>
<rect width="17.027" height="17.027" transform="matrix(-1 0 0 1 1021.33 155.799)" fill="#0022FF"/>
<rect width="29.7973" height="171.973" transform="matrix(-1 0 0 1 585.125 206.027)" fill="#0ADB81"/>
<rect width="29.7973" height="171.973" transform="matrix(-0.75463 0.656151 0.656151 0.75463 712.346 217.35)" fill="#0ADB81"/>
<rect width="66.4054" height="110.209" transform="matrix(-0.977436 -0.211232 -0.211232 0.977436 863.326 93.584)" fill="#0ADB81"/>
<rect width="63.8879" height="63.8879" transform="matrix(-1 0 0 1 922.26 55.6348)" fill="#F5F5F5"/>
<path d="M778.382 106.515L850.109 145.438L850.082 145.368L909.177 154.674L932.477 114.086L811.669 48.5293L778.382 106.515Z" fill="#0ADB81"/>
<rect width="189.851" height="75.7703" transform="matrix(-1 0 0 1 712.826 117.486)" fill="#F5F5F5"/>
<rect width="39.1622" height="63.8514" transform="matrix(-1 0 0 1 879.693 28.0938)" fill="#F5F5F5"/>
<rect width="63.8879" height="63.8879" transform="matrix(-1 0 0 1 842.086 10.5391)" fill="#F5F5F5"/>
<rect width="42.5919" height="42.5919" transform="matrix(-1 0 0 1 852.449 0)" fill="#F5F5F5"/>
<rect width="42.5919" height="42.5919" transform="matrix(-1 0 0 1 789.474 21.8125)" fill="#F5F5F5"/>
<rect width="42.5919" height="42.5919" transform="matrix(-1 0 0 1 780.936 45.9746)" fill="#F5F5F5"/>
<rect width="52.7838" height="42.5676" transform="matrix(-1 0 0 1 799.664 65.5527)" fill="#F5F5F5"/>
<rect width="42.5919" height="42.5919" transform="matrix(-1 0 0 1 806.478 88.5391)" fill="#F5F5F5"/>
<rect width="32.3514" height="42.5676" transform="matrix(-1 0 0 1 832.016 97.9062)" fill="#F5F5F5"/>
<rect width="146.432" height="70.6622" transform="matrix(-1 0 0 1 757.098 239.23)" fill="#F5F5F5"/>
<rect width="20.5107" height="88.9172" transform="matrix(-0.774227 -0.632908 -0.632908 0.774227 538.156 129.983)" fill="#F5F5F5"/>
<rect x="496.832" y="244.551" width="20.5107" height="56.5714" transform="rotate(-39.265 496.832 244.551)" fill="#F5F5F5"/>
<rect x="790.258" y="146.645" width="20.5107" height="81.2419" transform="rotate(-39.265 790.258 146.645)" fill="#F5F5F5"/>
<rect x="763.288" y="144.494" width="26.5499" height="81.2419" transform="rotate(-89.3652 763.288 144.494)" fill="#0ADB81"/>
<rect x="813.733" y="93.8438" width="14.668" height="22.3784" transform="rotate(-89.3652 813.733 93.8438)" fill="#0ADB81"/>
<rect x="801.12" y="82.1348" width="15.0117" height="22.3784" transform="rotate(-179.365 801.12 82.1348)" fill="#0ADB81"/>
<rect x="820.7" y="65.959" width="14.668" height="22.3784" transform="rotate(-179.365 820.7 65.959)" fill="#0ADB81"/>
<rect x="786.045" y="76.6526" width="28.9395" height="31.1789" transform="rotate(-89.3652 786.045 76.6526)" fill="#0ADB81"/>
<rect x="809.032" y="81.7207" width="28.9395" height="31.1789" transform="rotate(-89.3652 809.032 81.7207)" fill="#0ADB81"/>
<rect width="18.7297" height="40.0135" transform="matrix(-1 0 0 1 832.016 69.8105)" fill="#F5F5F5"/>
<rect width="5.95946" height="7.66217" transform="matrix(-0.487403 0.873177 0.873177 0.487403 918.123 113.23)" fill="#F5F5F5"/>
<rect width="3.24533" height="31.3271" transform="matrix(-0.487403 0.873177 0.873177 0.487403 868.04 90.4453)" fill="#F5F5F5"/>
<rect x="1.14951" y="4.05416" width="8.39782" height="24.7189" transform="matrix(-0.487403 0.873177 0.873177 0.487403 863.452 97.1311)" stroke="#F5F5F5" stroke-width="5.95946"/>
<path d="M497.436 178.715V230.035L545.206 288.608H779.471L821.801 236.706V128.555H538.346L497.436 178.715Z" fill="#F5F5F5"/>
<path d="M740.071 274.986H842.233V202.267L816.179 144.729H740.071V274.986Z" fill="#F5F5F5"/>
<rect width="17.027" height="17.027" transform="matrix(-1 0 0 1 774.125 155.799)" fill="#0022FF"/>
<rect width="17.027" height="17.027" transform="matrix(-1 0 0 1 740.07 247.742)" fill="#FF0000"/>
<rect width="17.027" height="17.027" transform="matrix(-1 0 0 1 706.018 193.256)" fill="#00FF08"/>
<rect width="17.027" height="17.027" transform="matrix(-1 0 0 1 803.07 206.027)" fill="#E1FF00"/>
<rect width="17.027" height="17.027" transform="matrix(-1 0 0 1 645.57 239.23)" fill="#0022FF"/>
<rect width="17.027" height="17.027" transform="matrix(-1 0 0 1 640.463 154.945)" fill="#E1FF00"/>
<rect width="17.027" height="17.027" transform="matrix(-1 0 0 1 593.638 197.514)" fill="#FF0000"/>
<rect width="17.027" height="17.027" transform="matrix(-1 0 0 1 557.03 235.824)" fill="#00FF08"/>
<rect width="17.027" height="17.027" transform="matrix(-1 0 0 1 555.326 155.799)" fill="#0022FF"/>
</svg>
