<svg width="2140" height="1864" viewBox="0 0 2140 1864" fill="none" xmlns="http://www.w3.org/2000/svg">
<g opacity="0.65">
<path d="M123.041 1111.86C123.041 1111.86 1299.23 1410.3 2012.63 746.606" stroke="white" stroke-width="17.3248"/>
<path d="M954.89 1201.35L967.914 1166.92L998.124 1164.37L1016.75 1196.12L954.89 1201.35Z" fill="white"/>
<path d="M995.218 1320.66L1056.89 1189.39L912.366 1201.62L995.218 1320.66Z" fill="#1500FF"/>
<path d="M1314.29 1143.92L1321.29 1107.79L1350.63 1100.15L1374.37 1128.28L1314.29 1143.92Z" fill="white"/>
<path d="M1374.24 1254.68L1412.78 1114.86L1272.42 1151.39L1374.24 1254.68Z" fill="#1500FF"/>
<path d="M1756.84 991.283L1750.78 954.977L1775.6 937.572L1807.67 955.645L1756.84 991.283Z" fill="white"/>
<path d="M1851.7 1074.12L1838.98 929.645L1720.22 1012.9L1851.7 1074.12Z" fill="#1500FF"/>
<path d="M546.089 1206.64L564.886 1175L595.082 1177.72L607.918 1212.21L546.089 1206.64Z" fill="white"/>
<path d="M565.111 1331.14L648.612 1212.55L504.161 1199.53L565.111 1331.14Z" fill="#FFFB00"/>
<path d="M1124.58 1183.44L1134.26 1147.93L1164.09 1142.51L1185.66 1172.34L1124.58 1183.44Z" fill="white"/>
<path d="M1176.09 1298.37L1224.97 1161.82L1082.28 1187.76L1176.09 1298.37Z" fill="#FFFB00"/>
<path d="M1507.93 1087.12L1510.12 1050.37L1538.21 1038.95L1565.43 1063.73L1507.93 1087.12Z" fill="white"/>
<path d="M1581.91 1189.04L1601.75 1045.37L1467.4 1100.02L1581.91 1189.04Z" fill="#FFFB00"/>
<path d="M342.315 1182.38L362.741 1151.76L392.753 1156.06L403.769 1191.18L342.315 1182.38Z" fill="white"/>
<path d="M354.807 1307.71L444.391 1193.65L300.819 1173.1L354.807 1307.71Z" fill="#FF0000"/>
<path d="M741.671 1211.89L756.389 1178.15L786.689 1177.1L803.714 1209.73L741.671 1211.89Z" fill="white"/>
<path d="M776.021 1333.06L844.133 1205.01L699.185 1210.05L776.021 1333.06Z" fill="#FF0000"/>
</g>
</svg>
